<svg width="56" height="56" viewBox="0 0 56 56" fill="none" xmlns="http://www.w3.org/2000/svg">
<rect x="55" y="55" width="54" height="54" rx="27" transform="rotate(180 55 55)" stroke="#5A7184" stroke-width="2"/>
<path d="M22.0937 28.0313L21.4062 27.3438C21.125 27.0313 21.125 26.5625 21.4062 26.2813L27.4687 20.2188C27.7812 19.9063 28.25 19.9063 28.5312 20.2188L34.625 26.2813C34.9062 26.5625 34.9062 27.0625 34.625 27.3438L33.9375 28.0313C33.625 28.3438 33.1562 28.3125 32.8437 28.0313L29.25 24.25L29.25 33.25C29.25 33.6563 28.9375 34 28.5 34L27.5 34C27.0937 34 26.75 33.6563 26.75 33.25L26.75 24.25L23.1875 28.0313C22.875 28.3125 22.4062 28.3438 22.0937 28.0313Z" fill="#5A7184"/>
</svg>
