<svg width="56" height="56" viewBox="0 0 56 56" fill="none" xmlns="http://www.w3.org/2000/svg">
<rect x="1" y="1" width="54" height="54" rx="27" stroke="#5A7184" stroke-width="2"/>
<path d="M33.9062 27.9688L34.5938 28.6562C34.875 28.9688 34.875 29.4375 34.5938 29.7188L28.5312 35.7812C28.2188 36.0938 27.75 36.0938 27.4688 35.7812L21.375 29.7188C21.0938 29.4375 21.0938 28.9375 21.375 28.6562L22.0625 27.9688C22.375 27.6562 22.8438 27.6875 23.1562 27.9688L26.75 31.75V22.75C26.75 22.3438 27.0625 22 27.5 22H28.5C28.9062 22 29.25 22.3438 29.25 22.75V31.75L32.8125 27.9688C33.125 27.6875 33.5938 27.6562 33.9062 27.9688Z" fill="#5A7184"/>
</svg>
