<svg width="15" height="18" viewBox="0 0 15 18" fill="none" xmlns="http://www.w3.org/2000/svg">
<path d="M12.2768 15.0496H11.8642V15.7035C11.8636 16.3123 11.6214 16.8961 11.1909 17.3266C10.7604 17.7571 10.1767 17.9993 9.56784 18H2.29637C1.68755 17.9993 1.10386 17.7572 0.673352 17.3266C0.242848 16.8961 0.000688568 16.3125 0 15.7036V5.24679C0.000688568 4.63797 0.242848 4.05427 0.673352 3.62377C1.10386 3.19327 1.68755 2.95111 2.29637 2.95042H2.70896V2.29651C2.70962 1.68766 2.95176 1.10394 3.38227 0.673401C3.81278 0.242868 4.39649 0.000688553 5.00534 0H12.2768C12.8856 0.000679016 13.4693 0.242834 13.8998 0.67334C14.3303 1.10384 14.5725 1.68754 14.5732 2.29637V12.7532C14.5725 13.362 14.3303 13.9457 13.8998 14.3762C13.4693 14.8067 12.8856 15.0489 12.2768 15.0496ZM2.29637 4.21604C2.0231 4.21636 1.76111 4.32506 1.56787 4.51829C1.37464 4.71152 1.26594 4.97352 1.26562 5.24679V15.7036C1.26593 15.9769 1.37463 16.2389 1.56786 16.4321C1.7611 16.6254 2.02309 16.7341 2.29637 16.7344H9.56784C9.84112 16.7341 10.1031 16.6254 10.2964 16.4321C10.4896 16.2389 10.5983 15.9769 10.5986 15.7036V15.0497H5.00523C4.39641 15.049 3.81272 14.8069 3.38221 14.3764C2.95171 13.9459 2.70955 13.3622 2.70886 12.7534V4.21604H2.29637ZM13.3076 2.29651C13.3073 2.0232 13.1986 1.76117 13.0054 1.5679C12.8121 1.37463 12.5501 1.26592 12.2768 1.26562H5.00534C4.73206 1.26593 4.47006 1.37463 4.27683 1.56786C4.08359 1.7611 3.9749 2.02309 3.97459 2.29637V12.7532C3.9749 13.0265 4.08359 13.2885 4.27683 13.4817C4.47006 13.675 4.73206 13.7836 5.00534 13.784H12.2768C12.5501 13.7836 12.8121 13.675 13.0053 13.4817C13.1985 13.2885 13.3072 13.0265 13.3076 12.7532V2.29651Z" fill="#686E70"/>
</svg>
