<svg width="50" height="50" viewBox="0 0 50 50" fill="none" xmlns="http://www.w3.org/2000/svg">
<path d="M25 50C38.8071 50 50 38.8071 50 25C50 11.1929 38.8071 0 25 0C11.1929 0 0 11.1929 0 25C0 38.8071 11.1929 50 25 50Z" fill="#CFD8DC"/>
<path d="M14.2045 34.5879H18.1818V24.9289L15.5774 20.3811L12.5 20.6675V32.8834C12.5 33.8251 13.2628 34.5879 14.2045 34.5879Z" fill="#0085F7"/>
<path d="M31.8203 34.5879H35.7976C36.7394 34.5879 37.5021 33.8251 37.5021 32.8834V20.6675L34.4292 20.3811L31.8204 24.9289V34.5879H31.8203Z" fill="#00A94B"/>
<path d="M31.8207 17.5425L29.4844 22.0007L31.8207 24.9289L37.5025 20.6675V18.3948C37.5025 16.2882 35.0977 15.0851 33.4116 16.3493L31.8207 17.5425Z" fill="#FFBC00"/>
<path fill-rule="evenodd" clip-rule="evenodd" d="M18.1793 24.9289L15.9531 20.2262L18.1793 17.5425L24.9975 22.6561L31.8157 17.5425V24.9289L24.9975 30.0425L18.1793 24.9289Z" fill="#FF4131"/>
<path d="M12.5 18.3948V20.6675L18.1818 24.9289V17.5425L16.5909 16.3493C14.9048 15.0851 12.5 16.2882 12.5 18.3948V18.3948Z" fill="#E51C19"/>
</svg>
