<svg version="1.2" xmlns="http://www.w3.org/2000/svg" viewBox="0 0 18 18" width="18" height="18"><style>.a{fill:#959ead}</style><path fill-rule="evenodd" class="a" d="m18 9l-0.2 0.3c0 0-0.7 1.3-2.2 2.5-1.9 1.6-4.2 2.5-6.6 2.5-2.4 0-4.7-0.9-6.6-2.5-1.5-1.2-2.2-2.5-2.2-2.5l-0.2-0.3 0.2-0.3c0 0 0.7-1.3 2.2-2.5 1.9-1.6 4.2-2.5 6.6-2.5 2.4 0 4.7 0.9 6.6 2.5 1.5 1.2 2.2 2.5 2.2 2.5zm-1.2 0c-0.3-0.4-0.9-1.2-1.9-2q-2.6-2.2-5.9-2.2-3.2 0-5.9 2.3c-0.9 0.7-1.5 1.5-1.8 1.9 0.3 0.4 0.9 1.2 1.8 2q2.7 2.3 5.9 2.3 3.3 0 6-2.3c0.9-0.8 1.5-1.6 1.8-2z"/><path fill-rule="evenodd" class="a" d="m12.4 9c0 1.9-1.5 3.4-3.4 3.4-1.9 0-3.4-1.5-3.4-3.4 0-1.9 1.5-3.4 3.4-3.4 1.9 0 3.4 1.5 3.4 3.4zm-1 0c0-1.3-1.1-2.4-2.4-2.4-1.3 0-2.4 1.1-2.4 2.4 0 1.3 1.1 2.4 2.4 2.4 1.3 0 2.4-1.1 2.4-2.4z"/><path class="a" d="m8.3 9c0-0.4 0.3-0.7 0.7-0.7 0.4 0 0.7 0.3 0.7 0.7 0 0.4-0.3 0.7-0.7 0.7-0.4 0-0.7-0.3-0.7-0.7z"/><path class="a" d="m2.6 15.7l-0.6-0.6 13.4-13 0.6 0.6z"/></svg>