<svg width="351" height="371" viewBox="0 0 351 371" fill="none" xmlns="http://www.w3.org/2000/svg">
<path d="M157.768 88.721L155.811 86.616C155.552 86.343 155.229 86.14 154.87 86.026C154.511 85.9121 154.129 85.8908 153.76 85.9642L150.785 86.616C150.32 86.7085 149.896 86.9442 149.572 87.29C149.248 87.6359 149.04 88.0746 148.979 88.5444L147.484 100.767L152.021 102.518C157.564 100.101 157.279 92.795 157.279 92.795L158.066 91.3419C158.3 90.9296 158.397 90.4538 158.344 89.9828C158.29 89.5119 158.088 89.0701 157.768 88.721Z" fill="#FFB573"/>
<path d="M102.928 125.511C102.928 125.511 107.289 125.769 109.843 125.715C112.397 125.66 114.978 125.633 117.491 125.484C120.004 125.334 122.49 125.144 124.772 124.832C125.815 124.692 126.849 124.493 127.869 124.234L128.847 123.922C129.146 123.786 128.847 124.017 128.983 123.922C129.69 123.216 130.348 122.463 130.953 121.668C131.7 120.717 132.447 119.699 133.194 118.667C134.688 116.589 136.155 114.43 137.636 112.257L146.507 99.0977L153.448 102.778C152.429 105.317 151.315 107.762 150.215 110.233C149.115 112.705 147.892 115.122 146.697 117.553C145.501 119.984 144.197 122.401 142.812 124.818C142.119 126.027 141.453 127.236 140.611 128.471C139.728 129.894 138.718 131.235 137.595 132.478C136.69 133.421 135.639 134.214 134.485 134.827C133.61 135.295 132.702 135.699 131.768 136.036C130.244 136.597 128.682 137.051 127.095 137.394C124.261 138.034 121.389 138.487 118.496 138.752C112.959 139.315 107.392 139.533 101.828 139.403L102.928 125.511Z" fill="#7DCE82"/>
<path d="M153.497 102.805C152.478 105.331 151.378 107.775 150.277 110.247C149.177 112.718 147.954 115.135 146.745 117.58C145.536 120.024 144.259 122.414 142.874 124.832C142.181 126.04 141.515 127.249 140.66 128.485C139.786 129.911 138.781 131.252 137.657 132.491C136.73 133.434 135.656 134.223 134.479 134.827C133.605 135.302 132.697 135.71 131.762 136.049C130.24 136.603 128.684 137.056 127.103 137.407C124.268 138.04 121.396 138.494 118.504 138.765C117.295 138.887 116.099 138.982 114.918 139.077C110.557 139.389 106.264 139.498 101.836 139.403L102.053 136.551L102.909 125.592C102.909 125.592 107.256 125.864 109.81 125.796C112.364 125.728 114.945 125.714 117.471 125.565C119.998 125.415 122.47 125.239 124.752 124.913C125.797 124.784 126.832 124.584 127.85 124.316C128.182 124.233 128.509 124.129 128.828 124.003C129.127 123.867 128.828 124.112 128.964 124.003C129.67 123.297 130.329 122.544 130.933 121.749C131.68 120.798 132.428 119.78 133.161 118.748C134.655 116.67 136.136 114.511 137.617 112.338L146.487 99.1787L153.497 102.805Z" fill="#80A2D2"/>
<path opacity="0.1" d="M114.933 138.994C110.573 139.307 106.28 139.415 101.852 139.32L102.069 136.468L103.128 133.97C107.565 134.058 111.795 135.859 114.933 138.994Z" fill="black"/>
<path d="M30.2792 369.082C30.2792 369.082 18.0534 360.622 18.7326 354.946C18.7578 354.815 18.7556 354.68 18.7262 354.55C18.6967 354.42 18.6406 354.298 18.5615 354.191C18.4824 354.084 18.3819 353.994 18.2664 353.928C18.1509 353.861 18.0229 353.819 17.8904 353.805L7.47131 352.23C7.21664 352.181 6.9534 352.206 6.71269 352.303C6.47199 352.399 6.26386 352.562 6.11289 352.773L0 361.45L2.71684 362.442L4.19751 361.41L4.9039 363.243C19.9144 368.675 26.462 370.861 29.7766 370.997C30.7546 369.829 30.2792 369.082 30.2792 369.082Z" fill="black"/>
<path d="M99.5268 209.381C99.5268 209.381 98.902 211.011 97.8016 213.835C96.6198 216.891 94.881 221.345 92.7891 226.641C91.4306 230.172 89.8413 234.083 88.1704 238.198C80.4954 257.21 70.5789 280.853 64.0177 292.763C51.4523 315.55 18.7144 358.83 18.7144 358.83L5.63281 354.05C5.63281 354.05 29.1878 309.48 41.074 286.896C45.5798 277.777 49.5531 268.405 52.9738 258.826C54.9435 253.571 56.8996 248.098 58.7878 242.68C59.6436 240.235 60.4858 237.791 61.3009 235.387C63.4608 229.032 65.4848 222.907 67.2644 217.448C67.4817 216.769 67.699 216.09 67.9164 215.438C68.6364 213.197 69.2748 211.079 69.9268 209.123C72.4807 201.084 74.07 195.787 74.1244 195.543L85.7932 201.898L99.5268 209.381Z" fill="#263238"/>
<path opacity="0.3" d="M97.807 213.834C96.6251 216.89 94.8864 221.344 92.7944 226.64C91.436 230.171 89.8466 234.082 88.1758 238.197C77.4986 240.343 66.6312 241.796 58.8203 242.679C59.6761 240.234 60.5183 237.79 61.3334 235.386C63.4933 229.031 65.5173 222.906 67.2968 217.447C67.5142 216.768 67.7316 216.089 67.9489 215.437C68.6689 213.196 69.3073 211.078 69.9594 209.122C77.811 210.195 88.298 211.797 97.807 213.834Z" fill="black"/>
<path d="M57.7266 132.789C59.607 139.616 60.8127 146.612 61.3264 153.675C61.8018 159.311 61.9784 164.851 62.0056 169.835C62.0327 174.819 61.8697 179.273 61.7067 182.668C61.4894 187.041 61.2313 189.717 61.2313 189.717L102.5 191.849C114.889 147.034 102.908 125.523 102.908 125.523C99.231 125.201 95.5376 125.115 91.8501 125.265C91.0894 125.265 90.3015 125.347 89.5136 125.415C83.3018 126.129 77.1375 127.208 71.0527 128.647C69.9523 128.891 68.8384 129.176 67.7517 129.462C62.3724 130.928 57.7266 132.789 57.7266 132.789Z" fill="#7DCE82"/>
<path d="M102.526 191.834L61.2568 189.716C61.2568 189.716 61.5149 187 61.7322 182.654C61.7322 181.378 61.8409 179.938 61.8952 178.349C61.9767 175.81 62.0311 172.917 62.0311 169.821C62.0311 168.314 62.0311 166.752 61.9496 165.15C61.9496 164.891 61.9496 164.633 61.9496 164.375C61.8816 161.836 61.7594 159.201 61.5828 156.526C61.5013 155.576 61.4334 154.625 61.3519 153.674C61.3519 152.927 61.2296 152.167 61.1617 151.42C60.9579 149.519 60.7406 147.618 60.4689 145.744C60.4009 145.227 60.3194 144.711 60.2379 144.209C60.1157 143.353 59.9798 142.525 59.8304 141.683C59.3029 138.674 58.6137 135.696 57.7656 132.761C57.7656 132.761 62.425 130.941 67.8179 129.461C68.8911 129.176 70.005 128.891 71.1053 128.646C77.192 127.216 83.3558 126.137 89.5662 125.414C90.3677 125.414 91.142 125.292 91.9163 125.278C95.6036 125.12 99.2972 125.202 102.974 125.523C102.974 125.523 114.914 146.952 102.526 191.834Z" fill="#80A2D2"/>
<path d="M128.046 299.197C128.046 299.197 116.255 290.044 117.342 284.422C117.373 284.293 117.378 284.158 117.356 284.026C117.334 283.895 117.285 283.769 117.213 283.657C117.14 283.545 117.045 283.449 116.934 283.375C116.823 283.301 116.699 283.251 116.567 283.227L106.243 281.054C105.995 280.998 105.736 281.013 105.496 281.097C105.256 281.181 105.044 281.331 104.885 281.53L98.2422 289.8L100.959 290.954L102.494 290.004L103.092 291.864C117.776 298.152 124.188 300.718 127.543 301.044C128.481 299.931 128.046 299.197 128.046 299.197Z" fill="black"/>
<path d="M80.9855 226.885H81.95L131.437 234.083L103.236 280.812L117.337 286.244C117.337 286.244 168.346 231.272 156.948 218.737C147.575 208.43 101.661 202.156 101.661 202.156L103.169 191.401L60.7315 183.035C42.5694 222.716 74.9134 226.492 80.9855 226.885Z" fill="#263238"/>
<path d="M60.2247 187.206L59.3281 187.029L60.1432 184.176L60.9446 184.326L60.2247 187.206Z" fill="#263238"/>
<path d="M93.6349 193.668L75.5 190.164L76.2064 187.285L94.2734 190.789L93.6349 193.668Z" fill="#263238"/>
<path d="M95.6582 191.061L103.32 192.541L102.803 195.447L95.0469 193.94L95.6582 191.061Z" fill="#263238"/>
<path d="M62.349 184.596L74.8193 187.013L74.0858 189.878L61.6562 187.475L62.349 184.596Z" fill="#263238"/>
<g opacity="0.2">
<path d="M60.2403 187.204L59.3438 187.027L60.1588 184.175L60.9603 184.324L60.2403 187.204Z" fill="#80A2D2"/>
<path d="M93.6427 193.666L75.5078 190.163L76.2142 187.284L94.2812 190.787L93.6427 193.666Z" fill="#80A2D2"/>
<path d="M95.6816 191.058L103.343 192.538L102.827 195.444L95.0703 193.937L95.6816 191.058Z" fill="#80A2D2"/>
<path d="M62.3568 184.597L74.8272 187.014L74.0936 189.879L61.6641 187.476L62.3568 184.597Z" fill="#80A2D2"/>
</g>
<path d="M87.6744 192.826H87.5114L82.9743 192.012C82.8473 191.992 82.7259 191.945 82.6182 191.875C82.5105 191.805 82.4189 191.712 82.3494 191.604C82.2769 191.498 82.2284 191.378 82.2073 191.251C82.1862 191.124 82.193 190.995 82.2272 190.871L82.6755 189.051C82.7306 188.817 82.8751 188.613 83.0781 188.484C83.281 188.355 83.5265 188.31 83.7622 188.359L88.2586 189.228C88.3837 189.248 88.5031 189.295 88.6086 189.365C88.7141 189.435 88.8032 189.527 88.8699 189.635C88.9388 189.74 88.9853 189.858 89.0064 189.982C89.0274 190.106 89.0225 190.233 88.9921 190.355L88.5846 192.107C88.5358 192.311 88.4195 192.494 88.2543 192.624C88.0892 192.755 87.885 192.826 87.6744 192.826ZM83.5992 189.119C83.568 189.121 83.5382 189.132 83.5138 189.152C83.4895 189.171 83.4718 189.198 83.4634 189.228L83.0151 191.047C83.0076 191.065 83.0037 191.083 83.0037 191.102C83.0037 191.12 83.0076 191.139 83.0151 191.156C83.0301 191.162 83.0463 191.166 83.0626 191.166C83.079 191.166 83.0951 191.162 83.1102 191.156L87.6473 191.971C87.6826 191.973 87.7175 191.963 87.7469 191.944C87.7763 191.924 87.7986 191.896 87.8103 191.862L88.2178 190.11C88.2262 190.094 88.2305 190.075 88.2305 190.056C88.2305 190.037 88.2262 190.019 88.2178 190.002C88.2054 189.995 88.1914 189.991 88.1771 189.991C88.1628 189.991 88.1487 189.995 88.1363 190.002L83.64 189.119H83.5992Z" fill="#80A2D2"/>
<path d="M84.8451 190.802H84.7772L83.4187 190.558C83.3667 190.549 83.3167 190.531 83.272 190.503C83.2272 190.475 83.1884 190.439 83.158 190.396C83.1276 190.353 83.1062 190.304 83.095 190.252C83.0837 190.201 83.083 190.148 83.0927 190.096C83.099 190.043 83.1164 189.992 83.1436 189.946C83.1709 189.9 83.2075 189.861 83.2511 189.83C83.2946 189.799 83.3441 189.778 83.3964 189.768C83.4487 189.757 83.5026 189.758 83.5546 189.77L84.913 190.014C84.9651 190.022 85.015 190.041 85.0598 190.069C85.1045 190.097 85.1433 190.133 85.1737 190.176C85.2041 190.219 85.2255 190.268 85.2368 190.319C85.248 190.371 85.2487 190.424 85.239 190.476C85.2204 190.567 85.1712 190.649 85.0995 190.709C85.0279 190.768 84.9381 190.801 84.8451 190.802Z" fill="#80A2D2"/>
<path d="M75.3436 109.907L86.1158 118.842C85.0698 123.215 86.9037 127.249 89.0228 127.995C89.0228 127.995 90.5986 131.744 87.5693 132.368C81.4157 133.645 74.4062 127.697 74.4062 127.697C77.6665 124.207 76.4846 115.488 75.3436 109.907Z" fill="#EBB376"/>
<path opacity="0.2" d="M79.7472 113.545L86.1318 118.828C85.8612 119.842 85.6794 120.878 85.5884 121.924C83.1976 121.612 79.8966 119.058 79.6249 116.56C79.4893 115.555 79.5307 114.535 79.7472 113.545Z" fill="black"/>
<path d="M84.8862 92.2502C87.4944 93.8799 91.0263 98.7823 86.6386 99.9638C82.2509 101.145 80.3898 89.4527 84.8862 92.2502Z" fill="#263238"/>
<path d="M71.3944 109.009C75.9587 115.012 78.3224 118.774 83.6202 119.874C91.5941 121.503 97.381 113.382 94.7049 106.103C92.2869 99.5577 85.196 90.8257 77.4666 92.5232C75.755 92.896 74.1651 93.6942 72.8438 94.844C71.5226 95.9938 70.5126 97.458 69.9073 99.1013C69.3021 100.745 69.121 102.514 69.381 104.246C69.6409 105.978 70.3334 107.616 71.3944 109.009Z" fill="#FFB573"/>
<path d="M72.7427 102.45L67.3091 96.0674C67.3091 96.0674 60.0687 101.391 63.3561 104.609C61.1962 109.702 69.795 116.831 77.3206 115.365C78.2036 110.761 71.493 102.912 71.493 102.912C71.917 102.779 72.3341 102.624 72.7427 102.45Z" fill="#263238"/>
<path d="M72.4621 115.841C73.1955 116.426 74.038 116.859 74.9405 117.116C75.8431 117.372 76.7876 117.447 77.7192 117.335C80.2051 117.022 80.436 114.537 79.0097 112.677C77.5833 110.816 74.7442 109.16 72.6251 110.409C72.1703 110.695 71.7929 111.088 71.5261 111.554C71.2593 112.02 71.1113 112.545 71.0952 113.081C71.0791 113.618 71.1954 114.151 71.4337 114.632C71.6721 115.113 72.0253 115.528 72.4621 115.841Z" fill="#FFB573"/>
<path d="M82.036 104.271C82.3756 104.774 82.9325 105.005 83.2585 104.788C83.5845 104.57 83.5845 103.959 83.2585 103.429C82.9325 102.899 82.3756 102.696 82.036 102.913C81.6963 103.13 81.6963 103.81 82.036 104.271Z" fill="#263238"/>
<path d="M87.7703 100.414C88.1235 100.93 88.6669 101.161 88.9929 100.93C89.3189 100.699 89.3189 100.102 88.9929 99.5717C88.6669 99.042 88.1099 98.8246 87.7703 99.0556C87.4307 99.2865 87.4307 99.8978 87.7703 100.414Z" fill="#263238"/>
<path d="M86.125 101.909C87.7602 102.996 89.5386 103.851 91.4093 104.448C91.0561 105.806 89.263 106.499 89.263 106.499L86.125 101.909Z" fill="#ED893E"/>
<path d="M84.5409 109.961C84.3025 110.086 84.0753 110.232 83.8617 110.396C83.8301 110.429 83.8125 110.472 83.8125 110.518C83.8125 110.564 83.8301 110.607 83.8617 110.64C83.877 110.658 83.8958 110.671 83.9169 110.681C83.9379 110.69 83.9608 110.695 83.9839 110.695C84.0071 110.695 84.0299 110.69 84.051 110.681C84.0721 110.671 84.0909 110.658 84.1062 110.64C84.7114 110.174 85.4192 109.86 86.1706 109.723C86.922 109.586 87.6952 109.63 88.426 109.852C88.4482 109.861 88.472 109.865 88.4958 109.864C88.5196 109.863 88.5431 109.858 88.5646 109.847C88.5862 109.837 88.6055 109.823 88.6214 109.805C88.6372 109.787 88.6493 109.766 88.6569 109.744C88.6749 109.7 88.675 109.652 88.6572 109.609C88.6393 109.565 88.605 109.531 88.5618 109.513C87.8966 109.308 87.1965 109.242 86.5048 109.319C85.8131 109.396 85.1447 109.615 84.5409 109.961Z" fill="#263238"/>
<path d="M78.1155 102.641C78.1793 102.644 78.243 102.631 78.3002 102.603C78.3574 102.574 78.4061 102.531 78.4415 102.478C78.6808 102.096 79.0051 101.775 79.3893 101.539C79.7734 101.303 80.2069 101.16 80.6557 101.119C80.7038 101.121 80.7518 101.113 80.7965 101.095C80.8413 101.078 80.8816 101.05 80.9151 101.016C80.9485 100.981 80.9741 100.94 80.9903 100.894C81.0065 100.849 81.0128 100.801 81.0089 100.753C81.0089 100.659 80.9717 100.569 80.9055 100.503C80.8392 100.437 80.7494 100.399 80.6557 100.399C80.0816 100.442 79.526 100.621 79.0347 100.921C78.5433 101.221 78.1305 101.633 77.8302 102.125C77.7788 102.206 77.7614 102.304 77.7817 102.398C77.8021 102.492 77.8585 102.574 77.9389 102.627C77.995 102.649 78.0566 102.654 78.1155 102.641Z" fill="#263238"/>
<path d="M87.846 95.7823C87.8664 95.7113 87.8664 95.636 87.846 95.565C87.8177 95.474 87.7551 95.3975 87.6714 95.3519C87.5878 95.3063 87.4896 95.295 87.3977 95.3205C86.8456 95.4598 86.3351 95.73 85.9095 96.1083C85.4839 96.4867 85.1556 96.9619 84.9526 97.4939C84.9259 97.5859 84.9349 97.6845 84.9777 97.7701C85.0205 97.8557 85.094 97.922 85.1835 97.9558C85.2281 97.9706 85.2752 97.9763 85.322 97.9726C85.3688 97.9689 85.4144 97.956 85.4561 97.9344C85.4979 97.9129 85.5349 97.8833 85.5651 97.8474C85.5952 97.8114 85.6179 97.7697 85.6318 97.7249C85.7951 97.3026 86.0584 96.9263 86.3991 96.6282C86.7398 96.3301 87.1477 96.1191 87.5879 96.0133C87.6471 96.0002 87.702 95.9721 87.7472 95.9316C87.7924 95.8912 87.8264 95.8398 87.846 95.7823Z" fill="#263238"/>
<path d="M71.4583 102.912C71.4583 102.912 85.8032 96.8826 86.6862 90.0111C87.5691 83.1395 81.497 85.937 81.497 85.937C81.497 85.937 84.3089 85.7469 84.0373 87.7839C84.0373 87.7839 79.1877 84.484 74.5283 87.3222C75.1597 87.3229 75.7831 87.4633 76.3538 87.7333C76.9245 88.0033 77.4284 88.3962 77.8293 88.8839C74.4544 89.7351 71.2884 91.2646 68.5241 93.3789C63.6474 97.0455 54.8041 110.096 71.4583 102.912Z" fill="#263238"/>
<path opacity="0.3" d="M101.675 202.047L78.2969 199.331C86.2159 198.285 94.2134 197.958 102.192 198.353L101.675 202.047Z" fill="black"/>
<path opacity="0.1" d="M61.5558 156.527C61.4743 155.577 61.4063 154.626 61.3248 153.675C61.3248 152.929 61.2026 152.168 61.1347 151.421C60.9309 149.52 60.7136 147.619 60.4419 145.745C60.3739 145.229 60.2924 144.713 60.2109 144.21C60.8552 143.7 61.5413 143.246 62.2621 142.852C63.0072 147.409 62.7664 152.072 61.5558 156.527Z" fill="black"/>
<path d="M22.6221 189.826L18.5469 199.332L27.3359 201.505C27.3359 201.505 31.1123 195.244 27.431 190.464L22.6221 189.826Z" fill="#EBB376"/>
<path d="M19.1795 206.761L26.1211 206.815L27.3437 201.587L18.5547 199.414L19.1795 206.761Z" fill="#EBB376"/>
<path d="M62.1542 139.334C62.7655 145.309 60.7143 147.74 60.7143 147.74C60.7143 147.74 54.9274 151.379 52.4143 153.24C50.2816 154.856 48.1897 156.485 46.2064 158.115C45.2283 158.943 44.2774 159.772 43.408 160.6C42.6341 161.326 41.908 162.102 41.2345 162.922C40.9854 163.268 40.7542 163.626 40.5417 163.995C40.2972 164.389 40.0391 164.987 39.7674 165.475C39.2377 166.562 38.7079 167.73 38.2053 168.938C37.2 171.369 36.2491 173.895 35.3526 176.462C33.4644 181.568 31.712 186.837 29.9189 192.011L21.8906 190.096C22.7057 184.474 23.806 178.974 25.0829 173.42C25.7485 170.704 26.4413 167.879 27.3515 165.054C27.7726 163.696 28.248 162.216 28.7914 160.75C29.1174 159.975 29.3891 159.283 29.7966 158.454C30.1927 157.583 30.6465 156.739 31.1551 155.929C32.1238 154.488 33.2049 153.125 34.3881 151.855C35.4613 150.687 36.5344 149.614 37.6211 148.568C39.781 146.504 41.9953 144.616 44.2502 142.797C48.7466 139.144 53.2566 135.803 58.0925 132.571C58.1333 132.612 61.6108 133.929 62.1542 139.334Z" fill="#7DCE82"/>
<path d="M62.1542 139.334C62.7655 145.309 60.7143 147.74 60.7143 147.74C60.7143 147.74 54.9274 151.379 52.4143 153.24C50.2816 154.856 48.1897 156.485 46.2064 158.115C45.2283 158.943 44.2774 159.772 43.408 160.6C42.6341 161.326 41.908 162.102 41.2345 162.922C40.9854 163.268 40.7542 163.626 40.5417 163.995C40.2972 164.389 40.0391 164.987 39.7674 165.475C39.2377 166.562 38.7079 167.73 38.2053 168.938C37.2 171.369 36.2491 173.895 35.3526 176.462C33.4644 181.568 31.712 186.837 29.9189 192.011L21.8906 190.096C22.7057 184.474 23.806 178.974 25.0829 173.42C25.7485 170.704 26.4413 167.879 27.3515 165.054C27.7726 163.696 28.248 162.216 28.7914 160.75C29.1174 159.975 29.3891 159.283 29.7966 158.454C30.1927 157.583 30.6465 156.739 31.1551 155.929C32.1238 154.488 33.2049 153.125 34.3881 151.855C35.4613 150.687 36.5344 149.614 37.6211 148.568C39.781 146.504 41.9953 144.616 44.2502 142.797C48.7466 139.144 53.2566 135.803 58.0925 132.571C58.1333 132.612 61.6108 133.929 62.1542 139.334Z" fill="#80A2D2"/>
<path d="M80.4122 131.322L83.4279 136.062C83.4279 136.062 72.9002 148.827 52.7412 153.037L51.3828 157.111L55.6754 158.238C55.6754 158.238 77.4101 152.602 86.1312 136.279L90.614 131.281L85.3297 129.502L80.4122 131.322Z" fill="#7DCE82"/>
<path d="M70.625 128.469L75.5425 124.177L85.3095 129.528L86.4506 123.675L91.6126 126.635L93.0933 134.227L85.8801 131.103L79.4412 136.861L70.625 128.469Z" fill="#7DCE82"/>
<path d="M70.625 128.469L75.5425 124.177L85.3095 129.528L86.4506 123.675L91.6126 126.635L93.0933 134.227L85.8801 131.103L79.4412 136.861L70.625 128.469Z" fill="#80A2D2"/>
<path d="M205.377 44.522C205.377 44.522 196.235 55.8478 186.97 54.9108C177.706 53.9737 172.965 57.7354 172.965 57.7354L172.055 62.2576L177.027 61.5786C177.027 61.5786 177.027 57.9935 186.698 58.4009C196.37 58.8083 203.624 50.4972 206.45 46.7219L205.377 44.522Z" fill="#7DCE82"/>
<path d="M270.977 25.7005L270.787 24.8042C270.705 24.3666 270.577 23.9387 270.406 23.5276C269.922 22.3007 269.165 21.2001 268.192 20.3092C266.986 19.222 265.572 18.3905 264.035 17.8647C262.094 17.1773 260.079 16.7215 258.031 16.5067C256.224 16.303 254.499 16.208 252.801 16.1672C249.419 16.0722 246.159 16.1672 242.939 16.4388C236.527 16.8646 230.143 17.6307 223.812 18.7339L226.149 32.1103C232.004 31.1868 238.117 30.3313 244.026 29.7202C246.987 29.4078 249.935 29.2313 252.774 29.1362C254.132 29.1362 255.586 29.1362 256.849 29.1362C257.673 29.1803 258.494 29.271 259.308 29.4078C259.336 29.9054 259.336 30.4041 259.308 30.9016C259.132 33.517 258.644 36.102 257.855 38.6016C256.134 44.2493 253.939 49.7416 251.293 55.0199L257.746 59.3113C261.87 54.1491 265.334 48.4922 268.056 42.4719C269.546 39.1829 270.578 35.7059 271.126 32.1374C271.418 29.9974 271.368 27.8246 270.977 25.7005Z" fill="#7DCE82"/>
<path d="M271.063 32.1222C270.629 35.1012 269.831 38.0156 268.686 40.7999C268.469 41.3567 268.238 41.9134 268.007 42.4566C265.28 48.4731 261.812 54.1255 257.683 59.2824L251.312 55.0183C253.984 49.779 256.219 44.3285 257.995 38.7221C258.534 36.9426 258.947 35.1275 259.231 33.2901C259.347 32.5526 259.42 31.8089 259.449 31.0629C259.477 30.5654 259.477 30.0667 259.449 29.5691C258.635 29.4323 257.814 29.3416 256.99 29.2975C255.631 29.216 254.273 29.216 252.915 29.2975H252.602C249.885 29.3926 247.019 29.5827 244.153 29.8679C238.42 30.4654 232.525 31.2259 226.833 32.1901L226.29 32.2716L223.953 18.8816C230.28 17.785 236.66 17.019 243.066 16.5865C246.299 16.3828 249.559 16.2199 252.942 16.3149C254.64 16.3149 256.351 16.4507 258.172 16.6544C260.219 16.8758 262.233 17.3314 264.176 18.0124C265.71 18.5433 267.123 19.3742 268.333 20.4569C269.306 21.3478 270.063 22.4485 270.547 23.6753C270.711 24.0889 270.838 24.516 270.927 24.9519L271.117 25.8482C271.422 27.9299 271.404 30.0461 271.063 32.1222Z" fill="#A4C6A6"/>
<path opacity="0.1" d="M252.457 29.2173C249.74 29.3123 246.874 29.5024 244.007 29.7876C238.275 30.3852 232.379 31.1457 226.688 32.1098C228.766 27.0037 230.899 21.8433 230.899 21.8433C238.472 22.9769 245.776 25.4754 252.457 29.2173Z" fill="black"/>
<path opacity="0.1" d="M268.671 40.8008C268.454 41.3576 268.223 41.9144 267.992 42.4576C265.265 48.4741 261.797 54.1265 257.668 59.2834L251.297 55.0192C253.969 49.78 256.204 44.3295 257.98 38.7231C258.519 36.9436 258.932 35.1284 259.216 33.291C262.561 35.5414 265.722 38.0525 268.671 40.8008Z" fill="black"/>
<path d="M181.853 28.3884C182.233 28.8503 182.274 29.4344 181.975 29.7468C181.676 30.0592 181.119 29.7468 180.739 29.3393C180.359 28.9318 180.318 28.2797 180.63 28.0488C180.943 27.8179 181.486 27.8586 181.853 28.3884Z" fill="#263238"/>
<path d="M182.336 29.3945C182.91 31.2756 183.221 33.227 183.26 35.1932C183.762 35.1654 184.253 35.0297 184.698 34.7954C185.144 34.5611 185.533 34.2336 185.841 33.8352L182.336 29.3945Z" fill="#DE5753"/>
<path d="M181.519 24.4223C181.55 24.3897 181.572 24.351 181.586 24.3088C181.601 24.2667 181.605 24.222 181.601 24.1778C181.599 24.1314 181.588 24.0858 181.569 24.0436C181.549 24.0014 181.522 23.9635 181.488 23.9319C181.454 23.9004 181.414 23.8759 181.37 23.8598C181.327 23.8437 181.28 23.8363 181.234 23.8382C180.677 23.851 180.131 23.997 179.642 24.2641C179.152 24.5311 178.734 24.9114 178.422 25.3732C178.376 25.4549 178.363 25.5511 178.386 25.642C178.409 25.733 178.465 25.8118 178.544 25.8622C178.624 25.9075 178.718 25.92 178.807 25.8972C178.896 25.8744 178.972 25.818 179.02 25.74C179.273 25.3754 179.61 25.0766 180.002 24.8687C180.395 24.6608 180.831 24.5496 181.275 24.5445C181.322 24.5431 181.368 24.5314 181.411 24.5103C181.453 24.4892 181.49 24.4591 181.519 24.4223Z" fill="#263238"/>
<path d="M195.391 21.0674C199.887 24.2995 208.472 29.4192 213.349 27.4772C213.349 27.4772 217.737 31.1302 213.526 40.2832C208.893 50.3597 206.312 42.8091 206.312 42.8091C207.521 36.6981 203.378 34.9734 199.099 34.1722L195.391 21.0674Z" fill="#E4897B"/>
<path d="M196.742 15.0253C200.939 21.0685 203.711 24.3956 203.126 29.6511C202.271 37.5683 193.061 40.5152 187.138 35.8844C181.799 31.6746 175.822 22.4944 179.653 15.7451C180.492 14.2509 181.698 12.9958 183.159 12.0991C184.619 11.2024 186.284 10.6938 187.997 10.6217C189.709 10.5496 191.411 10.9163 192.942 11.687C194.473 12.4578 195.781 13.6069 196.742 15.0253Z" fill="#E4897B"/>
<path d="M203.5 24.9934C202.862 28.4291 191.274 33.1414 186.099 25.7267C186.099 25.7267 179.524 25.7267 175.571 21.6527C171.618 17.5786 172.474 13.4095 176.006 11.0737C179.13 9.00956 187.199 -6.15943 196.599 4.66392C206.801 4.31084 204.275 20.7292 203.5 24.9934Z" fill="#263238"/>
<path d="M184.017 9.49866C184.017 9.49866 177.959 9.1999 174.508 11.9702C171.058 14.7406 171.995 23.2689 173.34 24.8714C173.657 25.3131 174.062 25.6846 174.53 25.9627C174.997 26.2408 175.517 26.4194 176.057 26.4874C176.057 26.4874 174.006 25.4146 174.006 23.7714C174.006 23.7714 174.902 25.8763 179.018 26.4874C178.697 26.2352 178.439 25.9106 178.267 25.5401C178.095 25.1696 178.012 24.7637 178.027 24.3553C178.027 24.3553 180.254 27.2479 185.416 24.3553C190.578 21.4627 184.017 9.49866 184.017 9.49866Z" fill="#263238"/>
<path d="M189.162 24.4495C190.198 25.9594 190.708 27.7678 190.615 29.5963C190.466 32 188.455 32.1901 186.866 30.6692C185.277 29.1482 183.81 26.4186 184.747 24.4087C185.684 22.3989 187.885 22.6569 189.162 24.4495Z" fill="#E4897B"/>
<path d="M201.218 44.5228C201.218 44.5228 200.09 30.8476 209.015 23.1748L219.652 24.1526C219.652 24.1526 213.525 39.1043 201.218 44.5228Z" fill="#7DCE82"/>
<path d="M201.218 44.5228C201.218 44.5228 200.09 30.8476 209.015 23.1748L219.652 24.1526C219.652 24.1526 213.525 39.1043 201.218 44.5228Z" fill="#A4C6A6"/>
<path d="M231.867 75.282C231.867 75.282 215.784 59.4884 198.016 48.4477C198.016 48.4477 209.847 20.6492 224.844 18.1641C224.844 18.1641 263.6 29.8701 274.848 61.6204L231.867 75.282Z" fill="#7DCE82"/>
<path d="M233.924 171.563L226.996 174.51L219.484 158.743L226.426 155.796L233.924 171.563Z" fill="#E4897B"/>
<path d="M274.87 61.5781L270.794 105.034C267.689 106.988 264.241 108.333 260.633 109C252.157 110.969 240.855 111.865 231.088 112.395C220.125 112.992 211.119 113.101 210.304 113.753C208.402 115.247 232.541 165.086 232.541 165.086L221.022 166.525C221.022 166.525 190.743 124.997 186.817 110.575C185.377 105.252 183.923 98.5839 193.704 92.3507C202.316 86.9186 234.375 82.7495 234.375 82.7495L231.903 75.3484L274.87 61.5781Z" fill="#263238"/>
<path opacity="0.2" d="M260.62 108.96C252.144 110.929 240.842 111.825 231.075 112.355C229.716 96.3304 237.867 80.9577 237.867 80.9577L249.332 78.0244L260.62 108.96Z" fill="black"/>
<path d="M334.97 165.18L336.206 172.608L319.103 176.193L317.867 168.751L334.97 165.18Z" fill="#E4897B"/>
<path d="M336.572 172.881C336.545 172.861 336.511 172.851 336.477 172.851C336.443 172.851 336.41 172.861 336.382 172.881C336.35 172.895 336.322 172.917 336.303 172.946C336.284 172.975 336.273 173.009 336.273 173.044C336.273 173.18 336.382 176.208 337.319 177.118C337.492 177.291 337.727 177.389 337.971 177.39C338.112 177.403 338.252 177.371 338.374 177.301C338.495 177.23 338.592 177.124 338.651 176.996C338.854 176.494 338.474 175.638 337.971 174.81C337.565 174.125 337.097 173.48 336.572 172.881ZM336.654 173.519C337.564 174.606 338.556 176.235 338.325 176.779C338.325 176.86 338.216 176.955 337.971 176.969C337.818 176.966 337.671 176.902 337.564 176.792C337.482 176.713 337.413 176.621 337.36 176.521C336.936 175.574 336.696 174.556 336.654 173.519Z" fill="#7DCE82"/>
<path d="M336.512 172.841C336.485 172.825 336.455 172.817 336.424 172.817C336.393 172.817 336.362 172.825 336.335 172.841C336.335 172.841 334.637 174.131 334.474 175.353C334.424 175.709 334.517 176.07 334.732 176.358C335.031 176.752 335.317 176.738 335.507 176.657C336.308 176.331 336.743 173.941 336.621 172.949C336.621 172.949 336.621 172.949 336.621 172.881C336.607 172.867 336.59 172.856 336.571 172.849C336.552 172.842 336.532 172.839 336.512 172.841ZM334.828 175.434C335.081 174.61 335.59 173.887 336.281 173.37C336.281 174.443 335.846 176.086 335.371 176.358C335.371 176.358 335.208 176.426 335.018 176.168C335.011 176.136 335.011 176.104 335.018 176.073C334.879 175.89 334.812 175.663 334.828 175.434Z" fill="#7DCE82"/>
<path d="M335.27 172.788L330.95 165.78C330.875 165.649 330.846 165.497 330.865 165.348C330.885 165.198 330.953 165.059 331.059 164.952L335.976 160.172C336.096 160.056 336.24 159.969 336.398 159.918C336.556 159.866 336.723 159.85 336.888 159.873C337.053 159.895 337.21 159.954 337.349 160.046C337.487 160.138 337.603 160.26 337.688 160.403C339.209 162.956 341.315 166.69 343.271 169.909C345.553 173.63 347.74 176.699 350.416 181.072C352.046 183.706 349.832 186.069 348.908 185.146C344.711 180.8 342.116 176.78 336.682 174.091C336.102 173.793 335.613 173.343 335.27 172.788Z" fill="#263238"/>
<path d="M274.86 61.5781C274.86 61.5781 288.675 97.063 265.351 110.833C265.351 110.833 265.052 151.845 270.948 156.653C278.107 162.492 330.582 165.466 330.582 165.466L330.134 178.503C330.134 178.503 273.95 183.093 256.942 176.996C237.014 169.852 232.586 75.8916 232.586 75.8916L274.86 61.5781Z" fill="#263238"/>
<path opacity="0.2" d="M258.906 83.3618L267.288 80.8359C267.886 84.4995 268.267 88.1952 268.429 91.9037L264.544 95.2444L260.862 94.0766C260.415 90.4706 259.762 86.8932 258.906 83.3618Z" fill="black"/>
<path d="M234.642 75.3081L235.729 78.7574L232.618 79.7216L231.531 76.2994L234.642 75.3081Z" fill="#263238"/>
<path d="M248.951 70.7173L250.119 74.2889L237.282 78.2678L236.141 74.8185L248.951 70.7173Z" fill="#263238"/>
<path d="M264.933 65.5981L266.101 69.3327L251.743 73.787L250.602 70.1882L264.933 65.5981Z" fill="#263238"/>
<path d="M276.625 66.0728L267.781 68.816H267.768L266.586 65.0679L275.361 62.2568L276.625 66.0728Z" fill="#263238"/>
<g opacity="0.2">
<path d="M234.642 75.3062L235.729 78.7555L232.618 79.7197L231.531 76.2975L234.642 75.3062Z" fill="#A4C6A6"/>
<path d="M248.951 70.7163L250.119 74.2879L237.282 78.2669L236.141 74.8175L248.951 70.7163Z" fill="#A4C6A6"/>
<path d="M264.941 65.5981L266.109 69.3327L251.75 73.787L250.609 70.1882L264.941 65.5981Z" fill="#A4C6A6"/>
<path d="M276.617 66.0728L267.774 68.816H267.76L266.578 65.0679L275.354 62.2568L276.617 66.0728Z" fill="#A4C6A6"/>
</g>
<path d="M224.847 172.311C224.882 172.302 224.913 172.282 224.937 172.256C224.961 172.23 224.977 172.197 224.983 172.162C224.99 172.124 224.984 172.085 224.967 172.051C224.95 172.016 224.922 171.989 224.888 171.972C224.779 171.972 222.103 170.477 220.813 170.844C220.577 170.909 220.376 171.066 220.256 171.279C220.176 171.395 220.133 171.532 220.133 171.673C220.133 171.813 220.176 171.951 220.256 172.067C220.582 172.488 221.519 172.596 222.484 172.569C223.278 172.558 224.069 172.472 224.847 172.311ZM224.263 172.053C222.905 172.284 220.962 172.325 220.595 171.849C220.595 171.781 220.5 171.673 220.595 171.455C220.628 171.389 220.676 171.331 220.735 171.286C220.794 171.241 220.862 171.211 220.935 171.197C221.047 171.177 221.162 171.177 221.275 171.197C222.317 171.285 223.332 171.576 224.263 172.053Z" fill="#7DCE82"/>
<path d="M224.916 172.284C224.943 172.264 224.964 172.237 224.976 172.206C224.988 172.175 224.991 172.141 224.984 172.108C224.882 171.047 224.45 170.045 223.748 169.242C223.607 169.131 223.446 169.048 223.274 168.999C223.101 168.95 222.921 168.936 222.743 168.957C222.254 168.957 222.118 169.27 222.091 169.473C221.982 170.329 223.816 171.918 224.739 172.298H224.807L224.916 172.284ZM223.558 169.568C224.136 170.212 224.501 171.018 224.604 171.877C223.666 171.334 222.403 170.084 222.471 169.568C222.471 169.568 222.471 169.405 222.824 169.365H222.933C223.143 169.352 223.351 169.405 223.53 169.514L223.558 169.568Z" fill="#7DCE82"/>
<path d="M225.583 171.236L233.815 171.046C233.965 171.039 234.113 171.086 234.233 171.178C234.352 171.27 234.435 171.401 234.467 171.548L236.124 178.202C236.16 178.363 236.16 178.53 236.124 178.69C236.088 178.851 236.017 179.002 235.916 179.132C235.814 179.262 235.685 179.368 235.538 179.442C235.391 179.516 235.229 179.556 235.064 179.56C232.09 179.56 227.797 179.56 224.075 179.56C219.701 179.655 215.924 179.981 210.83 180.103C207.733 180.185 206.755 177.075 208.113 176.763C213.982 175.323 218.791 175.079 223.817 171.82C224.343 171.472 224.953 171.271 225.583 171.236Z" fill="#263238"/>
<path d="M274.848 61.5929L231.867 75.2816C231.867 75.2816 224.287 67.8533 213.787 59.6102C211.79 58.0485 209.712 56.4596 207.525 54.8843C204.468 52.6572 201.262 50.4708 198.016 48.4473C198.016 48.4473 209.861 20.6488 224.858 18.1772C224.844 18.1772 263.6 29.8697 274.848 61.5929Z" fill="#A4C6A6"/>
<path opacity="0.1" d="M213.794 59.6091C211.797 58.0474 209.718 56.4585 207.531 54.8832L208.373 52.3438C210.66 54.3675 212.505 56.8407 213.794 59.6091Z" fill="black"/>
<path d="M151.704 87.9646L148.743 88.6708C148.381 88.7546 148.052 88.9439 147.798 89.2147C147.545 89.4855 147.377 89.8255 147.316 90.1918L146.651 94.2658C146.58 94.6881 146.656 95.1218 146.866 95.4949C147.076 95.868 147.408 96.1579 147.805 96.3164L149.979 97.172C149.979 97.172 156.228 101.681 161.512 98.7744L159.23 92.7313L154.761 88.6572C154.345 88.3039 153.85 88.0563 153.317 87.9357C152.785 87.8151 152.232 87.825 151.704 87.9646Z" fill="#E4897B"/>
<path d="M205.643 49.5875C206.79 50.3843 207.748 51.4217 208.452 52.6274C209.156 53.833 209.588 55.1778 209.718 56.5677C209.718 56.5677 206.73 64.7158 205.005 68.6948C203.823 71.4108 202.6 74.1268 201.174 76.8428C199.702 79.8225 197.937 82.6476 195.903 85.2761L195.428 85.8329L194.884 86.4304C194.454 86.8709 194.001 87.288 193.526 87.6798C193.236 87.9233 192.932 88.15 192.616 88.3588C192.317 88.5625 191.882 88.8477 191.76 88.902L190.605 89.4995C189.111 90.2464 187.712 90.8575 186.313 91.4143C183.514 92.555 180.757 93.56 177.986 94.5106C172.416 96.371 166.887 98.0686 161.209 99.4945L158.492 92.2291C163.586 89.6217 168.775 87.1501 173.842 84.6106C176.383 83.3477 178.909 82.0848 181.327 80.8082C182.523 80.17 183.718 79.4502 184.75 78.8799L185.484 78.4181C185.579 78.3366 185.579 78.3231 185.701 78.1465L185.864 77.9428L186.055 77.6576C187.369 75.6085 188.513 73.4557 189.478 71.2207C190.551 68.7762 191.638 66.2368 192.629 63.643C194.599 58.4825 196.487 53.1048 198.253 47.89C200.841 47.5368 203.469 48.1404 205.643 49.5875Z" fill="#7DCE82"/>
<path d="M205.643 49.5875C206.79 50.3843 207.748 51.4217 208.452 52.6274C209.156 53.833 209.588 55.1778 209.718 56.5677C209.718 56.5677 206.73 64.7158 205.005 68.6948C203.823 71.4108 202.6 74.1268 201.174 76.8428C199.702 79.8225 197.937 82.6476 195.903 85.2761L195.428 85.8329L194.884 86.4304C194.454 86.8709 194.001 87.288 193.526 87.6798C193.236 87.9233 192.932 88.15 192.616 88.3588C192.317 88.5625 191.882 88.8477 191.76 88.902L190.605 89.4995C189.111 90.2464 187.712 90.8575 186.313 91.4143C183.514 92.555 180.757 93.56 177.986 94.5106C172.416 96.371 166.887 98.0686 161.209 99.4945L158.492 92.2291C163.586 89.6217 168.775 87.1501 173.842 84.6106C176.383 83.3477 178.909 82.0848 181.327 80.8082C182.523 80.17 183.718 79.4502 184.75 78.8799L185.484 78.4181C185.579 78.3366 185.579 78.3231 185.701 78.1465L185.864 77.9428L186.055 77.6576C187.369 75.6085 188.513 73.4557 189.478 71.2207C190.551 68.7762 191.638 66.2368 192.629 63.643C194.599 58.4825 196.487 53.1048 198.253 47.89C200.841 47.5368 203.469 48.1404 205.643 49.5875Z" fill="#A4C6A6"/>
</svg>
