<svg width="18" height="18" viewBox="0 0 18 18" fill="none" xmlns="http://www.w3.org/2000/svg">
<path d="M17.8392 8.73014C17.8084 8.67843 17.0683 7.44964 15.6151 6.21615C13.6829 4.57597 11.3954 3.70898 9 3.70898C6.60456 3.70898 4.31708 4.57594 2.38486 6.21612C0.931711 7.44964 0.191566 8.67843 0.16077 8.73014L0 9.00004L0.16077 9.26993C0.191566 9.32164 0.931746 10.5504 2.38486 11.7839C4.31708 13.4241 6.60456 14.2911 9 14.2911C11.3954 14.2911 13.6829 13.4241 15.6151 11.784C17.0683 10.5504 17.8084 9.32168 17.8392 9.26997L18 9.00004L17.8392 8.73014ZM14.9325 10.9798C13.1687 12.4771 11.1727 13.2362 9 13.2362C6.83944 13.2362 4.85286 12.485 3.09537 11.0033C2.15343 10.2092 1.53141 9.40496 1.24646 8.99954C1.52719 8.59915 2.13645 7.8107 3.06749 7.02035C4.83135 5.52305 6.82734 4.76388 9 4.76388C11.1606 4.76388 13.1471 5.5151 14.9046 6.99676C15.8466 7.79091 16.4686 8.59514 16.7535 9.00056C16.4728 9.40092 15.8636 10.1894 14.9325 10.9798Z" fill="#959EAD"/>
<path d="M9.00034 5.55115C7.0985 5.55115 5.55127 7.09837 5.55127 9.00022C5.55127 10.9021 7.0985 12.4493 9.00034 12.4493C10.9022 12.4493 12.4494 10.9021 12.4494 9.00022C12.4494 7.09837 10.9022 5.55115 9.00034 5.55115ZM9.00034 11.3944C7.68016 11.3944 6.60613 10.3204 6.60613 9.00022C6.60613 7.68004 7.68016 6.60601 9.00034 6.60601C10.3205 6.60601 11.3946 7.68004 11.3946 9.00022C11.3946 10.3204 10.3205 11.3944 9.00034 11.3944Z" fill="#959EAD"/>
<path d="M9.0001 9.69343C9.38308 9.69343 9.69356 9.38296 9.69356 8.99998C9.69356 8.61699 9.38308 8.30652 9.0001 8.30652C8.61711 8.30652 8.30664 8.61699 8.30664 8.99998C8.30664 9.38296 8.61711 9.69343 9.0001 9.69343Z" fill="#959EAD"/>
</svg>
