<svg width="668" height="675" viewBox="0 0 668 675" fill="none" xmlns="http://www.w3.org/2000/svg">
<path d="M135.291 333.74C207.387 315.459 184.918 230.544 170.46 185.727C103.115 -23.0232 264.599 9.99891 322.272 88.428C350.602 126.955 429.056 193.708 518.044 156.832C620.139 114.526 672.699 262.923 579.589 301.897C499.287 335.509 566.078 451.095 579.589 512.543C597.064 592.018 519.463 638.604 457.332 592.018C395.201 545.433 298.364 506.558 222.041 569.027C152.876 625.637 132.607 637.32 80.4397 620.219C28.2728 603.118 6.33912 505.341 8.09755 469.959C9.85599 434.577 8.09757 365.991 135.291 333.74Z" fill="#FBFBFB"/>
<g filter="url(#filter0_d_3837_107365)">
<circle cx="547.331" cy="234.331" r="60.3313" fill="white"/>
</g>
<g clip-path="url(#clip0_3837_107365)">
<path d="M535.462 235.165H529.484V232.446C529.484 232.048 529.807 231.725 530.206 231.725H534.74C535.139 231.725 535.462 232.048 535.462 232.446V235.165Z" fill="#FFCE69"/>
<path d="M535.452 232.633C535.21 232.773 534.896 232.752 534.672 232.56C534.389 232.316 534.357 231.889 534.6 231.605L552.252 211.091C552.496 210.808 552.923 210.776 553.206 211.02C553.489 211.263 553.521 211.69 553.278 211.974L535.626 232.488C535.575 232.547 535.516 232.596 535.452 232.633Z" fill="#BDD3DD"/>
<path d="M534.739 231.725H532.664C533.063 231.725 533.386 232.048 533.386 232.446V234.984H535.46V232.446C535.46 232.048 535.137 231.725 534.739 231.725Z" fill="#FFBD61"/>
<path d="M565.349 234.984H559.371V232.446C559.371 232.048 559.694 231.725 560.093 231.725H564.627C565.026 231.725 565.349 232.048 565.349 232.446V234.984Z" fill="#868EAF"/>
<path d="M556.382 234.984H550.404V232.446C550.404 232.048 550.727 231.725 551.126 231.725H555.66C556.059 231.725 556.382 232.048 556.382 232.446V234.984Z" fill="#868EAF"/>
<path d="M564.627 231.725H562.553C562.951 231.725 563.274 232.048 563.274 232.446V234.984H565.349V232.446C565.349 232.048 565.026 231.725 564.627 231.725Z" fill="#7D83AD"/>
<path d="M555.661 231.725H553.586C553.984 231.725 554.308 232.048 554.308 232.446V234.984H556.382V232.446C556.382 232.048 556.059 231.725 555.661 231.725Z" fill="#7D83AD"/>
<path d="M548.91 264.602H566.843C568.494 264.602 569.832 263.263 569.832 261.613V237.702C569.832 236.051 568.494 234.713 566.843 234.713H548.91V264.602Z" fill="#A0C8FF"/>
<path d="M550.405 234.713H527.989C526.338 234.713 525 236.051 525 237.702V261.613C525 263.263 526.338 264.601 527.989 264.601H550.405V234.713Z" fill="#BDD3DD"/>
<path d="M537.702 259.371C543.067 259.371 547.416 255.022 547.416 249.657C547.416 244.292 543.067 239.943 537.702 239.943C532.337 239.943 527.988 244.292 527.988 249.657C527.988 255.022 532.337 259.371 537.702 259.371Z" fill="#868EAF"/>
<path d="M537.701 253.394C539.764 253.394 541.437 251.721 541.437 249.658C541.437 247.595 539.764 245.922 537.701 245.922C535.638 245.922 533.965 247.595 533.965 249.658C533.965 251.721 535.638 253.394 537.701 253.394Z" fill="#7D83AD"/>
<path d="M566.123 242.186H554.116C553.718 242.186 553.395 241.863 553.395 241.465V238.425C553.395 238.026 553.718 237.703 554.116 237.703H566.123C566.521 237.703 566.844 238.026 566.844 238.425V241.465C566.844 241.863 566.521 242.186 566.123 242.186Z" fill="#F9F5F3"/>
<path d="M557.819 247.946C558.104 246.741 557.358 245.534 556.154 245.249C554.949 244.964 553.742 245.71 553.457 246.915C553.172 248.119 553.918 249.327 555.123 249.611C556.327 249.896 557.534 249.15 557.819 247.946Z" fill="#868EAF"/>
<path d="M566.814 247.936C567.103 246.731 566.36 245.521 565.155 245.232C563.951 244.944 562.74 245.687 562.452 246.891C562.164 248.096 562.906 249.306 564.111 249.595C565.315 249.883 566.526 249.14 566.814 247.936Z" fill="#868EAF"/>
<path d="M566.843 253.324H553.393C553.02 253.324 552.717 253.021 552.717 252.647C552.717 252.274 553.02 251.971 553.393 251.971H566.843C567.217 251.971 567.52 252.274 567.52 252.647C567.52 253.021 567.217 253.324 566.843 253.324Z" fill="#868EAF"/>
<path d="M566.843 256.312H553.393C553.02 256.312 552.717 256.009 552.717 255.636C552.717 255.262 553.02 254.959 553.393 254.959H566.843C567.217 254.959 567.52 255.262 567.52 255.636C567.52 256.009 567.217 256.312 566.843 256.312Z" fill="#868EAF"/>
<path d="M566.843 259.3H553.393C553.02 259.3 552.717 258.998 552.717 258.624C552.717 258.25 553.02 257.947 553.393 257.947H566.843C567.217 257.947 567.52 258.25 567.52 258.624C567.52 258.998 567.217 259.3 566.843 259.3Z" fill="#868EAF"/>
<path d="M555.481 211.095C555.723 210.073 555.09 209.049 554.069 208.807C553.047 208.566 552.023 209.198 551.781 210.22C551.54 211.242 552.172 212.266 553.194 212.508C554.216 212.749 555.24 212.117 555.481 211.095Z" fill="#FFCE69"/>
<path d="M537.701 239.943C537.351 239.943 537.005 239.962 536.664 239.999C541.541 240.516 545.341 244.643 545.341 249.657C545.341 254.671 541.541 258.798 536.664 259.316C537.005 259.352 537.351 259.371 537.701 259.371C543.066 259.371 547.415 255.022 547.415 249.657C547.415 244.292 543.066 239.943 537.701 239.943Z" fill="#7D83AD"/>
<path d="M566.122 237.703H564.047C564.445 237.703 564.769 238.026 564.769 238.425V241.465C564.769 241.863 564.445 242.186 564.047 242.186H566.122C566.52 242.186 566.843 241.863 566.843 241.465V238.425C566.843 238.026 566.52 237.703 566.122 237.703Z" fill="#F9EAE0"/>
<path d="M564.604 245.174C564.229 245.174 563.877 245.266 563.566 245.428C564.282 245.803 564.771 246.552 564.771 247.416C564.771 248.279 564.282 249.028 563.566 249.403C563.877 249.565 564.229 249.657 564.604 249.657C565.842 249.657 566.845 248.654 566.845 247.416C566.845 246.177 565.842 245.174 564.604 245.174Z" fill="#7D83AD"/>
<path d="M555.635 245.174C555.261 245.174 554.908 245.266 554.598 245.428C555.313 245.803 555.802 246.552 555.802 247.416C555.802 248.279 555.313 249.028 554.598 249.403C554.908 249.565 555.261 249.657 555.635 249.657C556.873 249.657 557.877 248.654 557.877 247.416C557.877 246.177 556.873 245.174 555.635 245.174Z" fill="#7D83AD"/>
<path d="M566.844 234.713H564.77C566.42 234.713 567.758 236.051 567.758 237.702V261.613C567.758 263.263 566.42 264.601 564.77 264.601H566.844C568.495 264.601 569.833 263.263 569.833 261.613V237.702C569.833 236.051 568.495 234.713 566.844 234.713Z" fill="#91B2FA"/>
</g>
<path d="M547.5 301C510.773 301 481 271.227 481 234.5C481 197.773 510.773 168 547.5 168" stroke="#A0C8FF" stroke-width="4" stroke-linecap="round"/>
<path d="M547 180C576.823 180 601 204.177 601 234C601 263.823 576.823 288 547 288" stroke="#FFCE69" stroke-width="4" stroke-linecap="round"/>
<g filter="url(#filter1_d_3837_107365)">
<circle cx="147.331" cy="210.331" r="60.3313" fill="white"/>
</g>
<g clip-path="url(#clip1_3837_107365)">
<path d="M166.755 236.45H130.05C128.861 236.45 127.896 235.486 127.896 234.296V182.154C127.896 180.964 128.861 180 130.05 180H166.755C167.944 180 168.908 180.964 168.908 182.154V234.296C168.908 235.486 167.944 236.45 166.755 236.45Z" fill="#EDB58F"/>
<path d="M162.518 240.688H125.814C124.625 240.688 123.66 239.724 123.66 238.534V186.392C123.66 185.203 124.624 184.238 125.814 184.238H162.518C163.708 184.238 164.672 185.203 164.672 186.392V238.534C164.672 239.724 163.708 240.688 162.518 240.688Z" fill="#FBFDFF"/>
<path d="M162.517 184.238H158.016C159.205 184.238 160.169 185.203 160.169 186.392V238.534C160.169 239.724 159.205 240.688 158.016 240.688H162.517C163.706 240.688 164.671 239.724 164.671 238.534V186.392C164.671 185.203 163.706 184.238 162.517 184.238Z" fill="#EFF1F2"/>
<path d="M159.319 194.02H147.479C147.008 194.02 146.627 193.639 146.627 193.168C146.627 192.698 147.008 192.316 147.479 192.316H159.319C159.79 192.316 160.171 192.698 160.171 193.168C160.171 193.639 159.79 194.02 159.319 194.02Z" fill="#7D83AD"/>
<path d="M159.319 198.005H147.479C147.008 198.005 146.627 197.623 146.627 197.153C146.627 196.682 147.008 196.301 147.479 196.301H159.319C159.79 196.301 160.171 196.682 160.171 197.153C160.171 197.623 159.79 198.005 159.319 198.005Z" fill="#7D83AD"/>
<path d="M159.321 201.991H147.481C147.01 201.991 146.629 201.609 146.629 201.139C146.629 200.669 147.01 200.287 147.481 200.287H159.321C159.792 200.287 160.173 200.669 160.173 201.139C160.173 201.61 159.792 201.991 159.321 201.991Z" fill="#7D83AD"/>
<path d="M159.316 224.229H148.309C147.838 224.229 147.457 223.848 147.457 223.377C147.457 222.907 147.838 222.525 148.309 222.525H159.316C159.786 222.525 160.168 222.907 160.168 223.377C160.168 223.848 159.786 224.229 159.316 224.229Z" fill="#7D83AD"/>
<path d="M140.852 215.917H129.012C128.542 215.917 128.16 215.535 128.16 215.065C128.16 214.594 128.542 214.213 129.012 214.213H140.852C141.323 214.213 141.704 214.594 141.704 215.065C141.704 215.535 141.323 215.917 140.852 215.917Z" fill="#7D83AD"/>
<path d="M140.852 211.93H129.012C128.542 211.93 128.16 211.549 128.16 211.078C128.16 210.608 128.542 210.227 129.012 210.227H140.852C141.323 210.227 141.704 210.608 141.704 211.078C141.704 211.549 141.323 211.93 140.852 211.93Z" fill="#7D83AD"/>
<path d="M136.074 188.877V196.79H143.987C143.987 192.42 140.444 188.877 136.074 188.877Z" fill="#F99746"/>
<path d="M136.075 188.877C131.705 188.877 128.162 192.42 128.162 196.79C128.162 201.16 131.705 204.703 136.075 204.703C140.445 204.703 143.988 201.16 143.988 196.79H136.075V188.877Z" fill="#868EAF"/>
<path d="M159.606 217.73H145.38C145.067 217.73 144.812 217.475 144.812 217.162V208.984C144.812 208.67 145.067 208.416 145.38 208.416H159.606C159.919 208.416 160.173 208.67 160.173 208.984V217.162C160.173 217.475 159.919 217.73 159.606 217.73Z" fill="#868EAF"/>
<path d="M131.215 234.598H128.726C128.412 234.598 128.158 234.343 128.158 234.03V221.607C128.158 221.293 128.412 221.039 128.726 221.039H131.215C131.528 221.039 131.782 221.293 131.782 221.607V234.03C131.782 234.343 131.528 234.598 131.215 234.598Z" fill="#868EAF"/>
<path d="M137.978 234.598H135.49C135.176 234.598 134.922 234.344 134.922 234.03V224.867C134.922 224.553 135.176 224.299 135.49 224.299H137.978C138.292 224.299 138.546 224.553 138.546 224.867V234.03C138.546 234.344 138.292 234.598 137.978 234.598Z" fill="#7D83AD"/>
<path d="M144.738 234.597H142.25C141.936 234.597 141.682 234.343 141.682 234.03V228.927C141.682 228.614 141.936 228.359 142.25 228.359H144.738C145.052 228.359 145.306 228.614 145.306 228.927V234.03C145.306 234.343 145.052 234.597 144.738 234.597Z" fill="#7D83AD"/>
<path d="M159.322 228.415H148.315C147.844 228.415 147.463 228.033 147.463 227.563C147.463 227.092 147.844 226.711 148.315 226.711H159.322C159.792 226.711 160.174 227.092 160.174 227.563C160.174 228.033 159.792 228.415 159.322 228.415Z" fill="#7D83AD"/>
<path d="M159.32 232.6H148.313C147.842 232.6 147.461 232.219 147.461 231.748C147.461 231.278 147.842 230.896 148.313 230.896H159.32C159.79 230.896 160.172 231.278 160.172 231.748C160.172 232.219 159.79 232.6 159.32 232.6Z" fill="#7D83AD"/>
</g>
<path d="M147.5 277C110.773 277 81 247.227 81 210.5C81 173.773 110.773 144 147.5 144" stroke="#868EAF" stroke-width="4" stroke-linecap="round"/>
<path d="M147 156C176.823 156 201 180.177 201 210C201 239.823 176.823 264 147 264" stroke="#F99746" stroke-width="4" stroke-linecap="round"/>
<g filter="url(#filter2_d_3837_107365)">
<circle cx="120.331" cy="544.331" r="60.3313" fill="white"/>
</g>
<g clip-path="url(#clip2_3837_107365)">
<path d="M113.14 549.502H112.371C111.991 549.502 111.684 549.194 111.684 548.815C111.684 548.435 111.991 548.128 112.371 548.128H113.14C113.447 548.128 113.696 547.879 113.696 547.573C113.696 547.361 113.578 547.171 113.389 547.076L107.934 544.346C105.423 543.089 103.316 541.162 101.84 538.773C100.364 536.384 99.584 533.637 99.584 530.829V529.753C99.584 528.512 100.594 527.502 101.835 527.502H109.975C110.355 527.502 110.662 527.81 110.662 528.189C110.662 528.568 110.355 528.876 109.975 528.876H101.835C101.351 528.876 100.958 529.269 100.958 529.753V530.829C100.958 533.382 101.667 535.879 103.009 538.051C104.35 540.223 106.266 541.975 108.549 543.117L114.004 545.847C114.661 546.177 115.07 546.838 115.07 547.573C115.07 548.636 114.204 549.502 113.14 549.502Z" fill="#F7A738"/>
<path d="M129.142 549.502H128.372C127.309 549.502 126.443 548.636 126.443 547.573C126.443 546.838 126.852 546.177 127.509 545.848L132.964 543.117C135.247 541.975 137.163 540.223 138.504 538.051C139.846 535.879 140.555 533.382 140.555 530.829V529.753C140.555 529.269 140.162 528.876 139.678 528.876H131.538C131.158 528.876 130.851 528.568 130.851 528.189C130.851 527.81 131.158 527.502 131.538 527.502H139.678C140.919 527.502 141.929 528.512 141.929 529.753V530.829C141.929 533.637 141.149 536.384 139.673 538.773C138.198 541.162 136.09 543.089 133.579 544.346L128.124 547.076C127.935 547.171 127.817 547.361 127.817 547.573C127.817 547.879 128.067 548.128 128.373 548.128H129.143C129.522 548.128 129.829 548.435 129.829 548.815C129.829 549.194 129.522 549.502 129.142 549.502Z" fill="#F7A738"/>
<path d="M123.105 552.231V549.242H118.412V552.231C118.412 553.553 117.667 554.762 116.485 555.356L116.014 555.593C115.122 556.042 114.559 556.955 114.559 557.953V561.452H126.959V557.953C126.959 556.955 126.396 556.042 125.504 555.593L125.032 555.356C123.851 554.762 123.105 553.553 123.105 552.231Z" fill="#FEC93E"/>
<path d="M125.501 555.593L125.029 555.356C123.848 554.762 123.102 553.553 123.102 552.231V549.242H120.756V561.452H126.956V557.953C126.956 556.955 126.393 556.042 125.501 555.593Z" fill="#EFB635"/>
<path d="M120.754 551.776C115.058 549.496 111.16 544.17 110.708 538.052L109.658 523.844H131.849L130.8 538.052C130.348 544.17 126.449 549.496 120.754 551.776Z" fill="#FEC93E"/>
<path d="M127.441 523.844L126.391 538.052C126.069 542.42 123.988 548.07 120.752 551.774C120.753 551.775 120.754 551.775 120.755 551.776C126.451 549.496 130.349 544.17 130.801 538.052L131.851 523.844H127.441Z" fill="#EFB635"/>
<path d="M132.889 525.154H108.621C108.148 525.154 107.766 524.771 107.766 524.299V522.855C107.766 522.383 108.148 522 108.621 522H132.889C133.361 522 133.744 522.383 133.744 522.855V524.299C133.744 524.771 133.361 525.154 132.889 525.154Z" fill="#F7A738"/>
<path d="M132.887 523.571H108.619C108.17 523.571 107.803 523.225 107.767 522.785C107.765 522.808 107.764 522.831 107.764 522.855V524.299C107.764 524.771 108.147 525.154 108.619 525.154H132.887C133.359 525.154 133.742 524.771 133.742 524.299V522.855C133.742 522.831 133.74 522.808 133.738 522.785C133.703 523.225 133.335 523.571 132.887 523.571Z" fill="#EA9632"/>
<path d="M131.58 565.069H109.922V561.145C109.922 559.85 110.971 558.801 112.266 558.801H129.236C130.531 558.801 131.58 559.85 131.58 561.145V565.069H131.58Z" fill="#F7A738"/>
<path d="M129.236 558.801H126.782V561.571C126.782 562.534 126.002 563.314 125.039 563.314H109.922V565.069H131.58V563.314V561.145C131.58 559.85 130.531 558.801 129.236 558.801Z" fill="#EA9632"/>
<path d="M133.44 567.511H108.072C107.924 567.511 107.805 567.391 107.805 567.243V564.84C107.805 564.692 107.924 564.572 108.072 564.572H133.44C133.587 564.572 133.707 564.692 133.707 564.84V567.243C133.707 567.391 133.587 567.511 133.44 567.511Z" fill="#FEC93E"/>
<path d="M123.591 552.592H117.912C117.203 552.592 116.629 552.017 116.629 551.308V550.895C116.629 550.186 117.203 549.611 117.912 549.611H123.591C124.3 549.611 124.875 550.186 124.875 550.895V551.308C124.875 552.017 124.3 552.592 123.591 552.592Z" fill="#FF8150"/>
<path d="M123.595 551.101H117.916C117.4 551.101 116.956 550.795 116.752 550.355C116.676 550.519 116.633 550.701 116.633 550.894V551.307C116.633 552.016 117.207 552.591 117.916 552.591H123.595C124.304 552.591 124.879 552.016 124.879 551.307V550.894C124.879 550.701 124.835 550.519 124.759 550.355C124.555 550.795 124.112 551.101 123.595 551.101Z" fill="#FD6E2E"/>
<path d="M120.965 528.584L122.555 532.974L127.222 533.13C127.432 533.137 127.519 533.402 127.353 533.531L123.669 536.4L124.963 540.887C125.021 541.089 124.795 541.253 124.621 541.135L120.754 538.518L116.887 541.135C116.713 541.253 116.487 541.089 116.545 540.887L117.84 536.4L114.155 533.531C113.99 533.402 114.076 533.137 114.286 533.13L118.953 532.974L120.543 528.584C120.614 528.386 120.894 528.386 120.965 528.584Z" fill="white"/>
<path d="M133.44 564.572H128.909V565.522C128.909 566.084 128.454 566.539 127.892 566.539H108.072C107.924 566.539 107.805 566.419 107.805 566.271V567.243C107.805 567.391 107.924 567.511 108.072 567.511H133.44C133.587 567.511 133.707 567.391 133.707 567.243V566.271V564.84C133.707 564.692 133.587 564.572 133.44 564.572Z" fill="#EFB635"/>
</g>
<path d="M120.5 611C83.7731 611 54 581.227 54 544.5C54 507.773 83.7731 478 120.5 478" stroke="#F7A738" stroke-width="4" stroke-linecap="round"/>
<path d="M120 490C149.823 490 174 514.177 174 544C174 573.823 149.823 598 120 598" stroke="#FD6E2E" stroke-width="4" stroke-linecap="round"/>
<g filter="url(#filter3_d_3837_107365)">
<circle cx="313.331" cy="424.331" r="60.3313" fill="white"/>
</g>
<path d="M333.53 450.85H296.565C295.367 450.85 294.396 449.879 294.396 448.681V396.169C294.396 394.971 295.367 394 296.565 394H333.53C334.728 394 335.699 394.971 335.699 396.169V448.681C335.699 449.879 334.728 450.85 333.53 450.85Z" fill="#868EAF"/>
<g clip-path="url(#clip3_3837_107365)">
<path d="M331.315 398.31H293.066C292.414 398.31 291.886 398.839 291.886 399.491V451.905C291.886 452.557 292.414 453.086 293.066 453.086H331.315C331.967 453.086 332.495 452.557 332.495 451.905V399.491C332.495 398.839 331.967 398.31 331.315 398.31Z" fill="#F1F1F1"/>
<path d="M298.496 437.031H307.94V446.475H298.496V437.031Z" fill="#868EAF"/>
<path d="M298.496 420.033H307.94V429.477H298.496V420.033Z" fill="#868EAF"/>
<path d="M295.664 405.866H298.497V413.421H300.386V405.866H303.219V403.977H295.664V405.866Z" fill="#7FE5AE"/>
<path d="M328.717 403.977H321.162V405.866H323.995V413.421H325.884V405.866H328.717V403.977Z" fill="#7FE5AE"/>
<path d="M305.106 404.922V412.477C305.106 412.727 305.206 412.968 305.383 413.145C305.56 413.322 305.8 413.421 306.051 413.421H310.773V411.532H306.995V409.644H310.773V407.755H306.995V405.866H310.773V403.977H306.051C305.8 403.977 305.56 404.077 305.383 404.254C305.206 404.431 305.106 404.671 305.106 404.922Z" fill="#7FE5AE"/>
<path d="M312.663 404.922V408.699C312.663 408.95 312.762 409.19 312.939 409.367C313.116 409.544 313.357 409.644 313.607 409.644H317.385V411.532H312.663V413.421H318.329C318.579 413.421 318.82 413.322 318.997 413.145C319.174 412.968 319.273 412.727 319.273 412.477V408.699C319.273 408.449 319.174 408.209 318.997 408.031C318.82 407.854 318.579 407.755 318.329 407.755H314.551V405.866H319.273V403.977H313.607C313.357 403.977 313.116 404.077 312.939 404.254C312.762 404.431 312.663 404.671 312.663 404.922Z" fill="#7FE5AE"/>
<path d="M304.163 427.587C304.039 427.587 303.916 427.562 303.802 427.515C303.687 427.467 303.583 427.398 303.495 427.31L300.662 424.477L301.998 423.141L304.11 425.253L309.113 419.417L310.547 420.646L304.88 427.257C304.795 427.356 304.691 427.436 304.574 427.492C304.457 427.549 304.329 427.581 304.199 427.586C304.187 427.587 304.175 427.587 304.163 427.587Z" fill="#7FE6AE"/>
<path d="M304.163 444.585C304.039 444.585 303.916 444.561 303.802 444.514C303.687 444.466 303.583 444.397 303.495 444.309L300.662 441.476L301.998 440.14L304.11 442.252L309.113 436.416L310.547 437.645L304.88 444.256C304.795 444.354 304.691 444.435 304.574 444.491C304.457 444.548 304.329 444.58 304.199 444.585C304.187 444.585 304.175 444.585 304.163 444.585Z" fill="#7FE6AE"/>
<path d="M312.663 419.087H326.829V420.976H312.663V419.087Z" fill="#868EAF"/>
<path d="M312.663 423.809H326.829V425.697H312.663V423.809Z" fill="#868EAF"/>
<path d="M312.663 428.532H326.829V430.421H312.663V428.532Z" fill="#868EAF"/>
<path d="M312.663 436.086H326.829V437.975H312.663V436.086Z" fill="#868EAF"/>
<path d="M312.663 440.808H326.829V442.696H312.663V440.808Z" fill="#868EAF"/>
<path d="M312.663 445.531H326.829V447.42H312.663V445.531Z" fill="#868EAF"/>
</g>
<path d="M314 491C350.727 491 380.5 461.227 380.5 424.5C380.5 387.773 350.727 358 314 358" stroke="#868EAF" stroke-width="4" stroke-linecap="round"/>
<path d="M313 370C283.177 370 259 394.177 259 424C259 453.823 283.177 478 313 478" stroke="#7FE5AE" stroke-width="4" stroke-linecap="round"/>
<g filter="url(#filter4_d_3837_107365)">
<circle cx="500.331" cy="530.331" r="60.3313" fill="white"/>
</g>
<g clip-path="url(#clip4_3837_107365)">
<path d="M518.564 548.259H488.422C485.182 548.259 482.555 545.632 482.555 542.391V541.266C482.555 538.025 485.182 535.398 488.422 535.398H518.564V548.259Z" fill="#F8F6F3"/>
<path d="M487.055 536.684H483.84V546.972H487.055V536.684Z" fill="#5C546A"/>
<path d="M515.51 533.469H481.27V524.467H515.51C516.487 524.467 517.278 525.258 517.278 526.235V531.701C517.278 532.677 516.487 533.469 515.51 533.469Z" fill="#F8F6F3"/>
<path d="M518.565 512.893H485.771V522.538H518.565V512.893Z" fill="#F8F6F3"/>
<path d="M518.582 549.544H489.003C484.749 549.544 481.287 546.082 481.287 541.827C481.287 537.572 484.749 534.111 489.003 534.111H518.582C519.292 534.111 519.868 534.687 519.868 535.397C519.868 536.108 519.292 536.683 518.582 536.683H489.003C486.167 536.683 483.859 538.991 483.859 541.827C483.859 544.664 486.167 546.972 489.003 546.972H518.582C519.292 546.972 519.868 547.547 519.868 548.258C519.868 548.968 519.292 549.544 518.582 549.544Z" fill="#3F597D"/>
<path d="M514.723 534.112H480.643C480.288 534.112 480 533.825 480 533.469C480 533.114 480.288 532.826 480.643 532.826H514.723C515.787 532.826 516.652 531.961 516.652 530.897V527.039C516.652 525.976 515.787 525.11 514.723 525.11H480.643C480.288 525.11 480 524.823 480 524.467C480 524.112 480.288 523.824 480.643 523.824H514.723C516.496 523.824 517.938 525.267 517.938 527.039V530.897C517.938 532.67 516.496 534.112 514.723 534.112Z" fill="#217FB4"/>
<path d="M518.564 516.108H488.985C488.63 516.108 488.342 515.82 488.342 515.465C488.342 515.11 488.63 514.822 488.985 514.822H518.564V516.108Z" fill="#DCE5E9"/>
<path d="M518.562 518.681H488.983C488.628 518.681 488.34 518.393 488.34 518.037C488.34 517.682 488.628 517.394 488.983 517.394H518.562V518.681Z" fill="#DCE5E9"/>
<path d="M518.565 521.251H488.987C488.632 521.251 488.344 520.963 488.344 520.608C488.344 520.253 488.632 519.965 488.987 519.965H518.565V521.251Z" fill="#DCE5E9"/>
<path d="M481.27 526.396H514.706C515.061 526.396 515.349 526.684 515.349 527.039C515.349 527.395 515.061 527.682 514.706 527.682H481.27C481.27 527.682 481.27 526.396 481.27 526.396Z" fill="#DCE5E9"/>
<path d="M481.27 528.969H514.706C515.061 528.969 515.349 529.257 515.349 529.612C515.349 529.967 515.061 530.255 514.706 530.255H481.27C481.27 530.255 481.27 528.969 481.27 528.969Z" fill="#DCE5E9"/>
<path d="M481.268 531.539H514.704C515.06 531.539 515.347 531.827 515.347 532.182C515.347 532.537 515.06 532.825 514.704 532.825H481.268C481.268 532.825 481.268 531.539 481.268 531.539Z" fill="#DCE5E9"/>
<path d="M519.227 523.823H488.362C486.235 523.823 484.504 522.093 484.504 519.965V514.821C484.504 512.693 486.235 510.963 488.362 510.963H519.227C519.937 510.963 520.513 511.539 520.513 512.249C520.513 512.959 519.937 513.535 519.227 513.535H488.362C487.653 513.535 487.076 514.112 487.076 514.821V519.965C487.076 520.674 487.653 521.251 488.362 521.251H519.227C519.937 521.251 520.513 521.827 520.513 522.537C520.513 523.247 519.937 523.823 519.227 523.823Z" fill="#E84242"/>
<path d="M488.985 545.685C488.629 545.685 488.342 545.973 488.342 546.328C488.342 546.684 488.629 546.972 488.985 546.972H518.564V545.685H488.985Z" fill="#DCE5E9"/>
<path d="M488.987 543.113C488.631 543.113 488.344 543.401 488.344 543.756C488.344 544.112 488.631 544.399 488.987 544.399H518.566V543.113H488.987Z" fill="#DCE5E9"/>
<path d="M488.983 540.543C488.627 540.543 488.34 540.83 488.34 541.186C488.34 541.541 488.627 541.829 488.983 541.829H518.562V540.543H488.983Z" fill="#DCE5E9"/>
<path d="M488.985 537.971C488.629 537.971 488.342 538.258 488.342 538.614C488.342 538.969 488.629 539.257 488.985 539.257H518.564V537.971H488.985Z" fill="#DCE5E9"/>
</g>
<path d="M501 597C537.727 597 567.5 567.227 567.5 530.5C567.5 493.773 537.727 464 501 464" stroke="#E84242" stroke-width="4" stroke-linecap="round"/>
<path d="M500 476C470.177 476 446 500.177 446 530C446 559.823 470.177 584 500 584" stroke="#217FB4" stroke-width="4" stroke-linecap="round"/>
<g filter="url(#filter5_d_3837_107365)">
<circle cx="352.331" cy="120.331" r="60.3313" fill="white"/>
</g>
<path d="M368.741 141.189H337.408C336.393 141.189 335.569 140.366 335.569 139.351V94.8386C335.569 93.8231 336.392 92.9999 337.408 92.9999H368.741C369.756 92.9999 370.58 93.8231 370.58 94.8386V139.351C370.58 140.366 369.756 141.189 368.741 141.189Z" fill="#7B829D" fill-opacity="0.38"/>
<path d="M335.272 141.2L334.763 139.597L334.763 98.6683C334.763 97.544 335.674 96.6326 336.799 96.6326L365.739 96.6326C366.863 96.6326 367.774 97.544 367.774 98.6683L367.774 139.597L367.266 141.2L335.272 141.2Z" fill="#61A2F9"/>
<path d="M367.776 139.605L367.776 145.24C367.776 146.364 366.865 147.276 365.741 147.276L336.801 147.276C335.676 147.276 334.765 146.364 334.765 145.24L334.765 139.605L367.776 139.605Z" fill="#DAE7EF"/>
<path d="M339.276 96.6326L336.797 96.6326C335.673 96.6326 334.761 97.544 334.761 98.6683L334.761 139.597L335.27 141.2L339.276 141.2L339.276 96.6326Z" fill="#4A81F6"/>
<path d="M367.776 145.24L367.776 142.761L341.315 142.761C340.191 142.761 339.28 141.849 339.28 140.725L339.28 139.605L334.765 139.605L334.765 145.24C334.765 146.364 335.676 147.276 336.801 147.276L365.741 147.276C366.865 147.276 367.776 146.364 367.776 145.24Z" fill="#C1D5E4"/>
<path d="M348.044 143.433C348.044 143.011 348.386 142.67 348.808 142.67L353.732 142.67C354.153 142.67 354.495 143.011 354.495 143.433C354.495 143.855 354.153 144.196 353.732 144.196L348.808 144.196C348.386 144.196 348.044 143.855 348.044 143.433Z" fill="#868EAF"/>
<path d="M334 145.231L334 98.668C334 97.1245 335.255 95.8689 336.799 95.8689L365.739 95.8689C367.282 95.8689 368.538 97.1245 368.538 98.668L368.538 145.231C368.538 146.775 367.282 148.03 365.739 148.03L336.799 148.03C335.255 148.03 334 146.775 334 145.231ZM367.011 98.668C367.011 97.9664 366.441 97.3956 365.739 97.3956L336.799 97.3956C336.097 97.3956 335.526 97.9663 335.526 98.668L335.526 145.231C335.526 145.933 336.097 146.504 336.799 146.504L365.739 146.504C366.44 146.504 367.011 145.933 367.011 145.231L367.011 98.668Z" fill="#868EAF"/>
<path d="M359.997 123.308H342.533C341.793 123.308 341.192 122.966 341.192 122.544C341.192 122.123 341.793 121.781 342.533 121.781H359.997C360.738 121.781 361.338 122.123 361.338 122.544C361.338 122.966 360.738 123.308 359.997 123.308Z" fill="#F6F9F9"/>
<path d="M357.31 127.542H342.34C341.705 127.542 341.19 127.22 341.19 126.823C341.19 126.425 341.705 126.103 342.34 126.103H357.31C357.945 126.103 358.46 126.425 358.46 126.823C358.46 127.22 357.945 127.542 357.31 127.542Z" fill="#F6F9F9"/>
<path d="M354.625 131.855H342.15C341.621 131.855 341.192 131.533 341.192 131.135C341.192 130.738 341.621 130.416 342.15 130.416H354.625C355.154 130.416 355.583 130.738 355.583 131.135C355.583 131.533 355.155 131.855 354.625 131.855Z" fill="#F6F9F9"/>
<path d="M357.622 111.79H342.028C341.565 111.79 341.19 111.448 341.19 111.027C341.19 110.605 341.565 110.263 342.028 110.263H357.622C358.085 110.263 358.46 110.605 358.46 111.027C358.46 111.448 358.085 111.79 357.622 111.79Z" fill="#F6F9F9"/>
<path d="M361.73 115.823H342.239C341.661 115.823 341.192 115.482 341.192 115.06C341.192 114.638 341.661 114.297 342.239 114.297H361.73C362.309 114.297 362.777 114.638 362.777 115.06C362.777 115.482 362.309 115.823 361.73 115.823Z" fill="#F6F9F9"/>
<path d="M361.728 119.857H342.237C341.659 119.857 341.19 119.515 341.19 119.093C341.19 118.672 341.659 118.33 342.237 118.33H361.728C362.307 118.33 362.775 118.672 362.775 119.093C362.775 119.515 362.307 119.857 361.728 119.857Z" fill="#F6F9F9"/>
<path d="M341.562 100.226C341.343 100.295 341.194 100.499 341.194 100.73V105.422C341.194 105.713 341.429 105.949 341.718 105.949C342.007 105.949 342.242 105.713 342.242 105.422V102.422L344.436 105.624C344.593 105.851 344.852 105.948 345.098 105.871C345.349 105.792 345.512 105.553 345.512 105.258L345.468 100.716C345.465 100.426 345.231 100.193 344.944 100.193C344.943 100.193 344.941 100.193 344.939 100.193C344.65 100.196 344.418 100.434 344.421 100.726L344.45 103.786L342.149 100.43C342.019 100.24 341.781 100.157 341.562 100.226Z" fill="#F6F9F9"/>
<path d="M349.325 101.256C349.603 101.256 349.828 101.018 349.828 100.725C349.828 100.431 349.603 100.193 349.325 100.193H347.453C347.175 100.193 346.95 100.431 346.95 100.725V105.418C346.95 105.711 347.175 105.949 347.453 105.949H349.325C349.603 105.949 349.828 105.711 349.828 105.418C349.828 105.124 349.603 104.886 349.325 104.886H347.957V103.603H349.187C349.465 103.603 349.69 103.365 349.69 103.071C349.69 102.778 349.465 102.54 349.187 102.54H347.957V101.256H349.325V101.256Z" fill="#F6F9F9"/>
<path d="M360.74 104.894C360.232 104.894 359.742 104.698 359.429 104.371C359.224 104.155 358.873 104.138 358.646 104.334C358.419 104.53 358.402 104.863 358.608 105.079C359.127 105.624 359.924 105.949 360.74 105.949C361.751 105.949 362.599 105.338 362.757 104.496C362.876 103.864 362.571 103.038 361.361 102.613C360.744 102.397 360.171 102.161 360.005 102.092C359.889 102.005 359.832 101.871 359.854 101.725C359.869 101.631 359.94 101.401 360.292 101.3C361.022 101.09 361.693 101.597 361.71 101.61C361.944 101.795 362.292 101.766 362.488 101.544C362.685 101.32 362.655 100.988 362.421 100.8C362.375 100.764 361.289 99.9118 359.972 100.289C359.313 100.478 358.848 100.971 358.756 101.576C358.671 102.141 358.929 102.686 359.429 102.996C359.453 103.011 359.479 103.024 359.506 103.036C359.534 103.048 360.213 103.335 360.977 103.604C361.209 103.685 361.739 103.916 361.666 104.31C361.612 104.597 361.251 104.894 360.74 104.894Z" fill="#F6F9F9"/>
<path d="M354.001 100.217C353.823 100.275 353.698 100.433 353.663 100.616L352.799 103.602L352.247 100.619C352.194 100.333 351.934 100.147 351.667 100.203C351.399 100.26 351.225 100.538 351.278 100.824L352.136 105.462C352.243 106.083 353.122 106.122 353.28 105.515L354.147 102.517L355.01 105.515C355.169 106.123 356.047 106.082 356.154 105.461L357.015 100.833C357.069 100.547 356.895 100.269 356.627 100.212C356.36 100.155 356.1 100.341 356.046 100.627L355.493 103.602L354.619 100.566C354.538 100.287 354.262 100.131 354.001 100.217Z" fill="#F6F9F9"/>
<path d="M353 187C389.727 187 419.5 157.227 419.5 120.5C419.5 83.7731 389.727 54 353 54" stroke="#61A2F9" stroke-width="4" stroke-linecap="round"/>
<path d="M352 66C322.177 66 298 90.1766 298 120C298 149.823 322.177 174 352 174" stroke="#CDCFDA" stroke-width="4" stroke-linecap="round"/>
<defs>
<filter id="filter0_d_3837_107365" x="427" y="124" width="240.663" height="240.663" filterUnits="userSpaceOnUse" color-interpolation-filters="sRGB">
<feFlood flood-opacity="0" result="BackgroundImageFix"/>
<feColorMatrix in="SourceAlpha" type="matrix" values="0 0 0 0 0 0 0 0 0 0 0 0 0 0 0 0 0 0 127 0" result="hardAlpha"/>
<feOffset dy="10"/>
<feGaussianBlur stdDeviation="30"/>
<feColorMatrix type="matrix" values="0 0 0 0 0 0 0 0 0 0 0 0 0 0 0 0 0 0 0.05 0"/>
<feBlend mode="normal" in2="BackgroundImageFix" result="effect1_dropShadow_3837_107365"/>
<feBlend mode="normal" in="SourceGraphic" in2="effect1_dropShadow_3837_107365" result="shape"/>
</filter>
<filter id="filter1_d_3837_107365" x="27" y="100" width="240.663" height="240.663" filterUnits="userSpaceOnUse" color-interpolation-filters="sRGB">
<feFlood flood-opacity="0" result="BackgroundImageFix"/>
<feColorMatrix in="SourceAlpha" type="matrix" values="0 0 0 0 0 0 0 0 0 0 0 0 0 0 0 0 0 0 127 0" result="hardAlpha"/>
<feOffset dy="10"/>
<feGaussianBlur stdDeviation="30"/>
<feColorMatrix type="matrix" values="0 0 0 0 0 0 0 0 0 0 0 0 0 0 0 0 0 0 0.05 0"/>
<feBlend mode="normal" in2="BackgroundImageFix" result="effect1_dropShadow_3837_107365"/>
<feBlend mode="normal" in="SourceGraphic" in2="effect1_dropShadow_3837_107365" result="shape"/>
</filter>
<filter id="filter2_d_3837_107365" x="0" y="434" width="240.663" height="240.663" filterUnits="userSpaceOnUse" color-interpolation-filters="sRGB">
<feFlood flood-opacity="0" result="BackgroundImageFix"/>
<feColorMatrix in="SourceAlpha" type="matrix" values="0 0 0 0 0 0 0 0 0 0 0 0 0 0 0 0 0 0 127 0" result="hardAlpha"/>
<feOffset dy="10"/>
<feGaussianBlur stdDeviation="30"/>
<feColorMatrix type="matrix" values="0 0 0 0 0 0 0 0 0 0 0 0 0 0 0 0 0 0 0.05 0"/>
<feBlend mode="normal" in2="BackgroundImageFix" result="effect1_dropShadow_3837_107365"/>
<feBlend mode="normal" in="SourceGraphic" in2="effect1_dropShadow_3837_107365" result="shape"/>
</filter>
<filter id="filter3_d_3837_107365" x="193" y="314" width="240.663" height="240.663" filterUnits="userSpaceOnUse" color-interpolation-filters="sRGB">
<feFlood flood-opacity="0" result="BackgroundImageFix"/>
<feColorMatrix in="SourceAlpha" type="matrix" values="0 0 0 0 0 0 0 0 0 0 0 0 0 0 0 0 0 0 127 0" result="hardAlpha"/>
<feOffset dy="10"/>
<feGaussianBlur stdDeviation="30"/>
<feColorMatrix type="matrix" values="0 0 0 0 0 0 0 0 0 0 0 0 0 0 0 0 0 0 0.05 0"/>
<feBlend mode="normal" in2="BackgroundImageFix" result="effect1_dropShadow_3837_107365"/>
<feBlend mode="normal" in="SourceGraphic" in2="effect1_dropShadow_3837_107365" result="shape"/>
</filter>
<filter id="filter4_d_3837_107365" x="380" y="420" width="240.663" height="240.663" filterUnits="userSpaceOnUse" color-interpolation-filters="sRGB">
<feFlood flood-opacity="0" result="BackgroundImageFix"/>
<feColorMatrix in="SourceAlpha" type="matrix" values="0 0 0 0 0 0 0 0 0 0 0 0 0 0 0 0 0 0 127 0" result="hardAlpha"/>
<feOffset dy="10"/>
<feGaussianBlur stdDeviation="30"/>
<feColorMatrix type="matrix" values="0 0 0 0 0 0 0 0 0 0 0 0 0 0 0 0 0 0 0.05 0"/>
<feBlend mode="normal" in2="BackgroundImageFix" result="effect1_dropShadow_3837_107365"/>
<feBlend mode="normal" in="SourceGraphic" in2="effect1_dropShadow_3837_107365" result="shape"/>
</filter>
<filter id="filter5_d_3837_107365" x="222" y="-6.10352e-05" width="260.663" height="260.663" filterUnits="userSpaceOnUse" color-interpolation-filters="sRGB">
<feFlood flood-opacity="0" result="BackgroundImageFix"/>
<feColorMatrix in="SourceAlpha" type="matrix" values="0 0 0 0 0 0 0 0 0 0 0 0 0 0 0 0 0 0 127 0" result="hardAlpha"/>
<feOffset dy="10"/>
<feGaussianBlur stdDeviation="35"/>
<feColorMatrix type="matrix" values="0 0 0 0 0 0 0 0 0 0 0 0 0 0 0 0 0 0 0.11 0"/>
<feBlend mode="normal" in2="BackgroundImageFix" result="effect1_dropShadow_3837_107365"/>
<feBlend mode="normal" in="SourceGraphic" in2="effect1_dropShadow_3837_107365" result="shape"/>
</filter>
<clipPath id="clip0_3837_107365">
<rect width="44.8327" height="61.35" fill="white" transform="translate(525 204)"/>
</clipPath>
<clipPath id="clip1_3837_107365">
<rect width="48.8878" height="60.6883" fill="white" transform="translate(121 180)"/>
</clipPath>
<clipPath id="clip2_3837_107365">
<rect width="45.51" height="45.51" fill="white" transform="translate(98 522)"/>
</clipPath>
<clipPath id="clip3_3837_107365">
<rect width="42.2133" height="56.6042" fill="white" transform="translate(291 397.396)"/>
</clipPath>
<clipPath id="clip4_3837_107365">
<rect width="40.51" height="40.51" fill="white" transform="translate(480 510)"/>
</clipPath>
</defs>
</svg>
