<svg width="50" height="50" viewBox="0 0 50 50" fill="none" xmlns="http://www.w3.org/2000/svg">
<path d="M25 50C38.8071 50 50 38.8071 50 25C50 11.1929 38.8071 0 25 0C11.1929 0 0 11.1929 0 25C0 38.8071 11.1929 50 25 50Z" fill="#2FA3D9"/>
<path d="M13.6641 22.8196L35.835 14.2712C36.864 13.8995 37.7627 14.5223 37.4293 16.0783L37.4312 16.0764L33.6562 33.861C33.3765 35.1219 32.6272 35.4285 31.579 34.8345L25.8303 30.5976L23.0575 33.2689C22.7509 33.5755 22.4922 33.8342 21.8982 33.8342L22.3063 27.9839L32.9606 18.3586C33.4244 17.9504 32.8572 17.7205 32.2459 18.1267L19.0794 26.4164L13.4035 24.6458C12.1713 24.2549 12.1445 23.4136 13.6641 22.8196Z" fill="white"/>
</svg>
