<svg width="68" height="51" viewBox="0 0 68 51" fill="none" xmlns="http://www.w3.org/2000/svg">
<path fill-rule="evenodd" clip-rule="evenodd" d="M43.5094 14.8119C44.3669 26.3885 8.39844 51.0407 8.39844 30.6761C8.39844 15.5985 14.347 5.57183 22.9831 2.41084C24.867 1.72135 29.5936 1.64953 33.2615 2.41084C39.0372 3.92479 43.0453 8.54655 43.5094 14.8119Z" fill="#0F4BA0"/>
<path fill-rule="evenodd" clip-rule="evenodd" d="M50.2597 23.719C44.3489 36.1955 31.6413 44.8245 16.9182 44.8245C13.8935 44.8245 10.9538 44.4603 8.14062 43.7733C12.6212 48.1377 18.7422 50.8261 25.4911 50.8261C39.2253 50.8261 50.3592 39.6923 50.3592 25.9581C50.3592 25.2034 50.3255 24.4566 50.2597 23.719Z" fill="#E00B1A"/>
<path fill-rule="evenodd" clip-rule="evenodd" d="M21.4593 1.08643C9.21001 3.47316 0 13.7309 0 26.0233C0 30.3329 1.13207 34.3925 3.1303 37.9505C2.91032 36.3459 2.79688 34.7096 2.79688 33.0484C2.79688 19.5864 10.2465 7.77017 21.4593 1.08643Z" fill="#0F4BA0"/>
<ellipse cx="59.35" cy="8.76281" rx="7.93591" ry="7.93591" fill="#E20B1A"/>
</svg>
