<svg width="50" height="50" viewBox="0 0 50 50" fill="none" xmlns="http://www.w3.org/2000/svg">
<path d="M25 50C38.8071 50 50 38.8071 50 25C50 11.1929 38.8071 0 25 0C11.1929 0 0 11.1929 0 25C0 38.8071 11.1929 50 25 50Z" fill="#25D366"/>
<path d="M33.7206 16.1771C31.6392 14.075 28.8752 12.7858 25.9271 12.5422C22.979 12.2985 20.0408 13.1164 17.6426 14.8482C15.2444 16.5801 13.544 19.1119 12.8481 21.9871C12.1523 24.8623 12.5067 27.8915 13.8476 30.5283L12.5314 36.9185C12.5177 36.9821 12.5173 37.0478 12.5302 37.1116C12.5431 37.1753 12.5691 37.2357 12.6064 37.289C12.6611 37.3699 12.7391 37.4321 12.8301 37.4675C12.9211 37.5028 13.0207 37.5095 13.1156 37.4868L19.3785 36.0023C22.0079 37.3092 25.0157 37.6409 27.8667 36.9383C30.7177 36.2357 33.227 34.5444 34.948 32.1654C36.6691 29.7864 37.4903 26.8739 37.2655 23.9462C37.0408 21.0185 35.7846 18.2655 33.7206 16.1771ZM31.7678 31.7627C30.3278 33.1987 28.4734 34.1466 26.466 34.4729C24.4586 34.7992 22.3995 34.4873 20.5788 33.5813L19.7058 33.1494L15.8663 34.0587L15.8776 34.0109L16.6733 30.1464L16.2459 29.303C15.3156 27.4759 14.9874 25.4012 15.3084 23.3762C15.6293 21.3512 16.583 19.4797 18.0327 18.0298C19.8543 16.2088 22.3245 15.1858 24.9003 15.1858C27.476 15.1858 29.9462 16.2088 31.7678 18.0298C31.7833 18.0476 31.8 18.0643 31.8178 18.0798C33.6168 19.9055 34.6211 22.3684 34.6118 24.9316C34.6024 27.4947 33.5801 29.9501 31.7678 31.7627Z" fill="white"/>
<path d="M30.9938 28.9379C30.5233 29.6789 29.7799 30.586 28.8456 30.811C27.2088 31.2066 24.6969 30.8247 21.5711 27.9103L21.5325 27.8762C18.7841 25.3279 18.0703 23.2069 18.243 21.5247C18.3385 20.5699 19.1342 19.7061 19.8048 19.1423C19.9108 19.0518 20.0365 18.9874 20.1719 18.9542C20.3073 18.921 20.4485 18.9199 20.5844 18.9511C20.7203 18.9822 20.8469 19.0447 20.9543 19.1336C21.0617 19.2225 21.1468 19.3352 21.2028 19.4628L22.2144 21.7361C22.2802 21.8835 22.3045 22.046 22.2849 22.2062C22.2653 22.3664 22.2024 22.5183 22.103 22.6454L21.5916 23.3092C21.4818 23.4463 21.4156 23.6131 21.4014 23.7881C21.3872 23.9631 21.4257 24.1383 21.512 24.2913C21.7984 24.7937 22.485 25.5325 23.2465 26.2167C24.1013 26.9897 25.0492 27.6967 25.6494 27.9376C25.8099 28.0032 25.9865 28.0192 26.1563 27.9836C26.326 27.9479 26.4812 27.8622 26.6019 27.7376L27.1952 27.1397C27.3097 27.0268 27.452 26.9463 27.6078 26.9064C27.7635 26.8664 27.9271 26.8685 28.0818 26.9124L30.4846 27.5944C30.6172 27.635 30.7387 27.7054 30.8398 27.8003C30.941 27.8951 31.0191 28.0118 31.0682 28.1414C31.1174 28.271 31.1362 28.4102 31.1233 28.5483C31.1104 28.6863 31.0661 28.8196 30.9938 28.9379Z" fill="white"/>
</svg>
